<?xml version="1.0" encoding="utf-8"?>
<!-- Generator: Adobe Illustrator 18.0.0, SVG Export Plug-In . SVG Version: 6.00 Build 0)  -->
<!DOCTYPE svg PUBLIC "-//W3C//DTD SVG 1.1//EN" "http://www.w3.org/Graphics/SVG/1.1/DTD/svg11.dtd">
<svg version="1.1" id="Layer_1" xmlns="http://www.w3.org/2000/svg" xmlns:xlink="http://www.w3.org/1999/xlink" x="0px" y="0px"
	 viewBox="0 0 155.1 146.1" enable-background="new 0 0 155.1 146.1" xml:space="preserve">
<g>
	<g>
		<g>
			<path fill="#002C55" d="M86.5,43.8c-1.2,0-2.2,1-2.2,2.2s1,2.2,2.2,2.2s2.2-1,2.2-2.2S87.7,43.8,86.5,43.8z"/>
		</g>
	</g>
	<g>
		<g>
			<path fill="#002C55" d="M132.8,30.4H22.3c-1.2,0-2.2,1-2.2,2.2v13.5c0,5.9,4.6,10.7,10.3,11.2v11.3c0,17.4,9.5,32.7,23.6,40.8
				c0,0,0,0,0.1,0c0,0,0,0,0,0c7.1,4.1,15.3,6.3,23.5,6.3c8.6,0,16.7-2.3,23.6-6.3l0,0c7-4.1,12.9-9.9,17.1-16.9
				c4.3-7.2,6.5-15.5,6.5-23.9V57.3c5.8-0.5,10.3-5.3,10.3-11.2V32.6C135,31.4,134,30.4,132.8,30.4z M97.7,106.1
				c-6.2,3.3-13.1,5.1-20.2,5.1c-7.1,0-14-1.8-20.2-5.1V86.5c0-11.1,9.1-20.2,20.2-20.2s20.2,9.1,20.2,20.2V106.1z M120.2,68.5
				c0,13.8-6.8,26.8-18,34.8V86.5c0-13.6-11.1-24.7-24.7-24.7S52.8,72.9,52.8,86.5v16.8c-11.2-8-18-20.9-18-34.8V57.3h85.3V68.5z
				 M130.5,43.8h-35c-1.2,0-2.2,1-2.2,2.2s1,2.2,2.2,2.2h34.6c-0.9,2.6-3.4,4.5-6.4,4.5c-8.2,0-81.2,0-92.5,0c-3.7,0-6.7-3-6.7-6.7
				V34.9h106V43.8z"/>
		</g>
	</g>
	<g>
		<g>
			<path fill="#002C55" d="M77.5,70.8c-8.7,0-15.7,7.1-15.7,15.7s7.1,15.7,15.7,15.7s15.7-7.1,15.7-15.7S86.2,70.8,77.5,70.8z
				 M77.5,97.7c-6.2,0-11.2-5-11.2-11.2c0-6.2,5-11.2,11.2-11.2c6.2,0,11.2,5,11.2,11.2C88.8,92.7,83.7,97.7,77.5,97.7z"/>
		</g>
	</g>
	<g>
		<g>
			<path fill="#002C55" d="M77.5,79.8c-3.7,0-6.7,3-6.7,6.7c0,3.7,3,6.7,6.7,6.7c3.7,0,6.7-3,6.7-6.7C84.3,82.8,81.2,79.8,77.5,79.8
				z M77.5,88.7c-1.2,0-2.2-1-2.2-2.2s1-2.2,2.2-2.2s2.2,1,2.2,2.2S78.8,88.7,77.5,88.7z"/>
		</g>
	</g>
</g>
</svg>
