<?xml version="1.0" encoding="utf-8"?>
<!-- Generator: Adobe Illustrator 18.0.0, SVG Export Plug-In . SVG Version: 6.00 Build 0)  -->
<!DOCTYPE svg PUBLIC "-//W3C//DTD SVG 1.1//EN" "http://www.w3.org/Graphics/SVG/1.1/DTD/svg11.dtd">
<svg version="1.1" id="Layer_1" xmlns="http://www.w3.org/2000/svg" xmlns:xlink="http://www.w3.org/1999/xlink" x="0px" y="0px"
	 viewBox="0 0 155.1 146.1" enable-background="new 0 0 155.1 146.1" xml:space="preserve">
<path fill="#002C55" d="M102.3,41c-0.3,0-0.7-0.1-1-0.3c-8.2-4.2-15.2-6-23.7-6c-8.4,0-16.4,2-23.7,6c-1,0.6-2.3,0.2-2.9-0.9
	c-0.6-1-0.2-2.3,0.9-2.9c7.9-4.3,16.6-6.5,25.8-6.5c9.1,0,17,2,25.7,6.5c1.1,0.6,1.4,1.8,0.9,2.9C103.8,40.5,103,41,102.3,41z
	 M41.4,63.3c-0.4,0-0.9-0.1-1.2-0.4c-1-0.7-1.2-2-0.5-3c4.2-6,9.6-10.6,16-13.9c13.4-6.9,30.5-6.9,43.9,0c6.4,3.3,11.7,7.9,16,13.8
	c0.7,0.9,0.5,2.3-0.5,3c-1,0.7-2.3,0.5-3-0.5c-3.8-5.4-8.7-9.6-14.4-12.5c-12.2-6.3-27.8-6.3-40,0c-5.8,3-10.6,7.2-14.5,12.6
	C42.7,63,42,63.3,41.4,63.3z M68,114.7c-0.6,0-1.1-0.2-1.5-0.6c-3.7-3.7-5.7-6.1-8.6-11.2c-2.9-5.2-4.5-11.6-4.5-18.5
	c0-12.6,10.8-22.9,24.1-22.9s24.1,10.3,24.1,22.9c0,1.2-0.9,2.1-2.1,2.1c-1.2,0-2.1-0.9-2.1-2.1c0-10.3-8.9-18.7-19.8-18.7
	S57.7,74,57.7,84.3c0,6.1,1.4,11.8,4,16.4c2.7,4.9,4.6,7,7.9,10.3c0.8,0.9,0.8,2.2,0,3C69.1,114.5,68.5,114.7,68,114.7z M98.5,106.8
	c-5.1,0-9.5-1.3-13.2-3.8C79,98.7,75.2,91.8,75.2,84.3c0-1.2,0.9-2.1,2.1-2.1s2.1,0.9,2.1,2.1c0,6,3.1,11.7,8.3,15.2
	c3,2,6.6,3,10.8,3c1,0,2.7-0.1,4.4-0.4c1.1-0.2,2.3,0.6,2.5,1.7c0.2,1.1-0.6,2.3-1.7,2.5C101.2,106.8,99.1,106.8,98.5,106.8z
	 M89.9,115.6c-0.2,0-0.4,0-0.6-0.1c-6.8-1.9-11.2-4.4-15.8-8.9c-6-5.9-9.2-13.8-9.2-22.2c0-6.9,5.9-12.5,13.1-12.5
	s13.1,5.6,13.1,12.5c0,4.6,4,8.3,8.9,8.3c4.9,0,8.9-3.7,8.9-8.3c0-16-13.8-29.1-30.9-29.1c-12.1,0-23.2,6.7-28.1,17.2
	c-1.7,3.4-2.5,7.5-2.5,11.9c0,3.3,0.3,8.6,2.9,15.4c0.4,1.1-0.1,2.3-1.2,2.7c-1.1,0.4-2.3-0.2-2.7-1.2c-2.1-5.6-3.1-11.1-3.1-16.9
	c0-5.1,1-9.7,2.9-13.8C51.1,58.7,63.6,51,77.4,51c19.4,0,35.1,14.9,35.1,33.3c0,6.9-5.9,12.5-13.1,12.5c-7.2,0-13.1-5.6-13.1-12.5
	c0-4.6-4-8.3-8.9-8.3c-4.9,0-8.9,3.7-8.9,8.3c0,7.3,2.8,14.1,8,19.2c4,4,7.9,6.2,13.9,7.9c1.1,0.3,1.8,1.5,1.5,2.6
	C91.7,115,90.8,115.6,89.9,115.6z"/>
</svg>
