<?xml version="1.0" encoding="utf-8"?>
<!-- Generator: Adobe Illustrator 18.0.0, SVG Export Plug-In . SVG Version: 6.00 Build 0)  -->
<!DOCTYPE svg PUBLIC "-//W3C//DTD SVG 1.1//EN" "http://www.w3.org/Graphics/SVG/1.1/DTD/svg11.dtd">
<svg version="1.1" id="Layer_1" xmlns="http://www.w3.org/2000/svg" xmlns:xlink="http://www.w3.org/1999/xlink" x="0px" y="0px"
	 viewBox="0 0 155.1 146.1" enable-background="new 0 0 155.1 146.1" xml:space="preserve">
<g>
	<path fill="none" d="M20.1,51.5v17.9c0,2.2,1.8,4.1,4.1,4.1h106.8c2.2,0,4.1-1.8,4.1-4.1V51.5H20.1z"/>
	<g>
		<path fill="none" d="M41,58h-5.4c-1,0-1.8,0.8-1.8,1.8v5.4c0,1,0.8,1.8,1.8,1.8H41c1,0,1.8-0.8,1.8-1.8v-5.4
			C42.9,58.8,42,58,41,58z"/>
		<path fill="none" d="M67.2,58h-5.4c-1,0-1.8,0.8-1.8,1.8v5.4c0,1,0.8,1.8,1.8,1.8h5.4c1,0,1.8-0.8,1.8-1.8v-5.4
			C69,58.8,68.2,58,67.2,58z"/>
		<path fill="none" d="M93.3,58h-5.4c-1,0-1.8,0.8-1.8,1.8v5.4c0,1,0.8,1.8,1.8,1.8h5.4c1,0,1.8-0.8,1.8-1.8v-5.4
			C95.1,58.8,94.3,58,93.3,58z"/>
		<path fill="none" d="M119.4,58H114c-1,0-1.8,0.8-1.8,1.8v5.4c0,1,0.8,1.8,1.8,1.8h5.4c1,0,1.8-0.8,1.8-1.8v-5.4
			C121.2,58.8,120.4,58,119.4,58z"/>
	</g>
	<path fill="#002C55" d="M62.5,75.5v33.4h-0.8c-2.1,0-3.8,1.7-3.8,3.8v5.4c0,2.1,1.7,3.8,3.8,3.8h5.4c2.1,0,3.8-1.7,3.8-3.8v-5.4
		c0-2.1-1.7-3.8-3.8-3.8h-0.8V75.5h22.3v33.4h-0.8c-2.1,0-3.8,1.7-3.8,3.8v5.4c0,2.1,1.7,3.8,3.8,3.8h5.4c2.1,0,3.8-1.7,3.8-3.8
		v-5.4c0-2.1-1.7-3.8-3.8-3.8h-0.8V75.5h22.3v19.8c0,9.9,6.5,18.2,15.5,21v1.7c0,2.1,1.7,3.8,3.8,3.8h5.4c2.1,0,3.8-1.7,3.8-3.8
		v-5.4c0-2.1-1.7-3.8-3.8-3.8h-5.4c-1.9,0-3.5,1.5-3.7,3.3c-6.8-2.6-11.7-9.2-11.7-16.9V75.5h12.3c3.3,0,6-2.7,6-6V30.3
		c0-3.3-2.7-6-6-6H52.3c-1.1,0-1.9,0.9-1.9,1.9c0,1.1,0.9,1.9,1.9,1.9h78.7c1.2,0,2.1,1,2.1,2.1v19.3H22V30.3c0-1.2,1-2.1,2.1-2.1
		h20.5c1.1,0,1.9-0.9,1.9-1.9c0-1.1-0.9-1.9-1.9-1.9H24.1c-3.3,0-6,2.7-6,6v39.2c0,3.3,2.7,6,6,6h12.3v19.8
		c0,7.7-4.9,14.3-11.7,16.9c-0.2-1.9-1.8-3.3-3.7-3.3h-5.4c-2.1,0-3.8,1.7-3.8,3.8v5.4c0,2.1,1.7,3.8,3.8,3.8H21
		c2.1,0,3.8-1.7,3.8-3.8v-1.7c9-2.8,15.5-11.1,15.5-21V75.5L62.5,75.5L62.5,75.5L62.5,75.5z M67.1,112.7v5.2h-5.2v-5.2h0.7v2.6
		c0,1.1,0.9,1.9,1.9,1.9c1.1,0,1.9-0.9,1.9-1.9v-2.6H67.1z M93.2,112.7v5.2H88v-5.2h0.7v2.6c0,1.1,0.9,1.9,1.9,1.9
		c1.1,0,1.9-0.9,1.9-1.9v-2.6H93.2z M134.1,112.7h5.2v5.2h-5.2v-0.8c0.9,0.1,1.7,0.2,2.6,0.2c1.1,0,1.9-0.9,1.9-1.9
		c0-1.1-0.9-1.9-1.9-1.9c-0.9,0-1.8-0.1-2.6-0.2V112.7z M20.9,117.9h-5.2v-5.2h5.2v0.5c-0.9,0.1-1.7,0.2-2.6,0.2
		c-1.1,0-1.9,0.9-1.9,1.9c0,1.1,0.9,1.9,1.9,1.9c0.9,0,1.7-0.1,2.6-0.2V117.9z M24.1,71.6c-1.2,0-2.1-1-2.1-2.1v-16h111.1v16
		c0,1.2-1,2.1-2.1,2.1h-12.3V69h0.8c2.1,0,3.8-1.7,3.8-3.8v-5.4c0-2.1-1.7-3.8-3.8-3.8H114c-2.1,0-3.8,1.7-3.8,3.8v5.4
		c0,2.1,1.7,3.8,3.8,3.8h0.8v2.6H92.5V69h0.8c2.1,0,3.8-1.7,3.8-3.8v-5.4c0-2.1-1.7-3.8-3.8-3.8h-5.4c-2.1,0-3.8,1.7-3.8,3.8v5.4
		c0,2.1,1.7,3.8,3.8,3.8h0.8v2.6H66.4V69h0.8c2.1,0,3.8-1.7,3.8-3.8v-5.4c0-2.1-1.7-3.8-3.8-3.8h-5.4c-2.1,0-3.8,1.7-3.8,3.8v5.4
		c0,2.1,1.7,3.8,3.8,3.8h0.8v2.6H40.3V69H41c2.1,0,3.8-1.7,3.8-3.8v-5.4c0-2.1-1.7-3.8-3.8-3.8h-5.4c-2.1,0-3.8,1.7-3.8,3.8v5.4
		c0,2.1,1.7,3.8,3.8,3.8h0.8v2.6H24.1L24.1,71.6z M116.7,60.6c-1.1,0-1.9,0.9-1.9,1.9v2.6h-0.7v-5.2h5.2v5.2h-0.7v-2.6
		C118.6,61.5,117.8,60.6,116.7,60.6z M90.6,60.6c-1.1,0-1.9,0.9-1.9,1.9v2.6H88v-5.2h5.2v5.2h-0.7v-2.6
		C92.5,61.5,91.7,60.6,90.6,60.6z M64.5,60.6c-1.1,0-1.9,0.9-1.9,1.9v2.6h-0.7v-5.2h5.2v5.2h-0.7v-2.6
		C66.4,61.5,65.5,60.6,64.5,60.6z M38.3,60.6c-1.1,0-1.9,0.9-1.9,1.9v2.6h-0.7v-5.2h5.2v5.2h-0.7v-2.6
		C40.3,61.5,39.4,60.6,38.3,60.6z"/>
	<g>
		<path fill="#002C55" d="M103.8,40.8h11.8c1.1,0,1.9-0.9,1.9-1.9c0-1.1-0.9-1.9-1.9-1.9h-11.8c-1.1,0-1.9,0.9-1.9,1.9
			C101.8,39.9,102.7,40.8,103.8,40.8z"/>
		<path fill="#002C55" d="M103.8,34.6h11.8c1.1,0,1.9-0.9,1.9-1.9s-0.9-1.9-1.9-1.9h-11.8c-1.1,0-1.9,0.9-1.9,1.9
			S102.7,34.6,103.8,34.6z"/>
		<path fill="#002C55" d="M103.8,47h11.8c1.1,0,1.9-0.9,1.9-1.9c0-1.1-0.9-1.9-1.9-1.9h-11.8c-1.1,0-1.9,0.9-1.9,1.9
			C101.8,46.1,102.7,47,103.8,47z"/>
		<rect x="13.8" y="110.8" fill="#002C55" width="9.1" height="9.1"/>
		<rect x="59.9" y="110.8" fill="#002C55" width="9.1" height="9.1"/>
		<rect x="86.1" y="110.8" fill="#002C55" width="9.1" height="9.1"/>
		<rect x="134.1" y="110.8" fill="#002C55" width="7.2" height="9.1"/>
		<rect x="112.2" y="58" fill="#002C55" width="9.1" height="9.1"/>
		<rect x="87.9" y="58" fill="#002C55" width="7.2" height="7.2"/>
		<rect x="61.8" y="58" fill="#002C55" width="7.2" height="7.2"/>
		<rect x="33.8" y="58" fill="#002C55" width="9.1" height="7.2"/>
	</g>
</g>
</svg>
