<?xml version="1.0" encoding="utf-8"?>
<!-- Generator: Adobe Illustrator 18.0.0, SVG Export Plug-In . SVG Version: 6.00 Build 0)  -->
<!DOCTYPE svg PUBLIC "-//W3C//DTD SVG 1.1//EN" "http://www.w3.org/Graphics/SVG/1.1/DTD/svg11.dtd">
<svg version="1.1" id="Layer_1" xmlns="http://www.w3.org/2000/svg" xmlns:xlink="http://www.w3.org/1999/xlink" x="0px" y="0px"
	 viewBox="0 0 155.1 146.1" enable-background="new 0 0 155.1 146.1" xml:space="preserve">
<g>
	<g>
		<g>
			<path fill="#002C55" d="M117.4,12.3H37.7c-1,0-1.9,0.8-1.9,1.9v113.8c0,1,0.8,1.9,1.9,1.9h5.7v1.9c0,1,0.8,1.9,1.9,1.9
				c1,0,1.9-0.8,1.9-1.9v-1.9h60.7v1.9c0,1,0.8,1.9,1.9,1.9s1.9-0.8,1.9-1.9v-1.9h5.7c1,0,1.9-0.8,1.9-1.9V14.2
				C119.3,13.2,118.4,12.3,117.4,12.3z M115.5,126.2H39.6V74.9h75.9V126.2z M115.5,71.1H39.6V46.5h75.9V71.1z M115.5,42.7H39.6V16.1
				h75.9V42.7z"/>
		</g>
	</g>
	<g>
		<g>
			<path fill="#002C55" d="M88.9,25.6H66.1c-1,0-1.9,0.8-1.9,1.9c0,1,0.8,1.9,1.9,1.9h22.8c1,0,1.9-0.8,1.9-1.9
				C90.8,26.4,90,25.6,88.9,25.6z"/>
		</g>
	</g>
	<g>
		<g>
			<path fill="#002C55" d="M109.8,112.9c-1,0-1.9,0.8-1.9,1.9v3.8H106c-1,0-1.9,0.8-1.9,1.9c0,1,0.8,1.9,1.9,1.9h3.8
				c1,0,1.9-0.8,1.9-1.9v-5.7C111.7,113.7,110.8,112.9,109.8,112.9z"/>
		</g>
	</g>
	<g>
		<g>
			<path fill="#002C55" d="M100.3,118.6h-3.8c-1,0-1.9,0.8-1.9,1.9c0,1,0.8,1.9,1.9,1.9h3.8c1,0,1.9-0.8,1.9-1.9
				C102.2,119.4,101.3,118.6,100.3,118.6z"/>
		</g>
	</g>
	<g>
		<g>
			<path fill="#002C55" d="M49.1,19.9h-3.8c-1,0-1.9,0.8-1.9,1.9v5.7c0,1,0.8,1.9,1.9,1.9c1,0,1.9-0.8,1.9-1.9v-3.8h1.9
				c1,0,1.9-0.8,1.9-1.9S50.1,19.9,49.1,19.9z"/>
		</g>
	</g>
	<g>
		<g>
			<path fill="#002C55" d="M58.6,19.9h-3.8c-1,0-1.9,0.8-1.9,1.9s0.8,1.9,1.9,1.9h3.8c1,0,1.9-0.8,1.9-1.9S59.6,19.9,58.6,19.9z"/>
		</g>
	</g>
</g>
</svg>
