<?xml version="1.0" encoding="utf-8"?>
<!-- Generator: Adobe Illustrator 18.0.0, SVG Export Plug-In . SVG Version: 6.00 Build 0)  -->
<!DOCTYPE svg PUBLIC "-//W3C//DTD SVG 1.1//EN" "http://www.w3.org/Graphics/SVG/1.1/DTD/svg11.dtd">
<svg version="1.1" id="Layer_1" xmlns="http://www.w3.org/2000/svg" xmlns:xlink="http://www.w3.org/1999/xlink" x="0px" y="0px"
	 viewBox="0 0 155.1 146.1" enable-background="new 0 0 155.1 146.1" xml:space="preserve">
<path fill="none" stroke="#002C55" stroke-width="4" stroke-miterlimit="10" d="M114.8,89.3c-5.8,0-11.4-0.9-16.6-2.7
	c-1.6-0.5-3.4-0.1-4.8,1.1L83.2,98c-13.2-6.7-24-17.5-30.7-30.7l10.2-10.3c1.3-1.2,1.7-3,1.2-4.7c-1.7-5.2-2.7-10.8-2.7-16.6
	c0-2.6-2.1-4.7-4.7-4.7H40.3c-2.6,0-4.7,2.1-4.7,4.7c0,43.7,35.4,79.2,79.2,79.2c2.6,0,4.7-2.1,4.7-4.7V94
	C119.4,91.4,117.3,89.3,114.8,89.3z M110.1,73h9.3c0-23.1-18.8-41.9-41.9-41.9v9.3C95.6,40.4,110.1,55,110.1,73z M91.5,73h9.3
	c0-12.9-10.4-23.3-23.3-23.3v9.3C85.3,59.1,91.5,65.3,91.5,73z"/>
</svg>
