<?xml version="1.0" encoding="utf-8"?>
<!-- Generator: Adobe Illustrator 18.0.0, SVG Export Plug-In . SVG Version: 6.00 Build 0)  -->
<!DOCTYPE svg PUBLIC "-//W3C//DTD SVG 1.1//EN" "http://www.w3.org/Graphics/SVG/1.1/DTD/svg11.dtd">
<svg version="1.1" id="Layer_1" xmlns="http://www.w3.org/2000/svg" xmlns:xlink="http://www.w3.org/1999/xlink" x="0px" y="0px"
	 viewBox="0 0 155.1 146.1" enable-background="new 0 0 155.1 146.1" xml:space="preserve">
<g>
	<g>
		<path fill="#002C55" d="M127.7,27.3l-4.5-4.5c-0.6-0.6-1.6-0.8-2.4-0.3l-15.8,8.8c-0.5,0.3-0.9,0.8-1,1.5
			c-0.1,0.6,0.1,1.2,0.6,1.7l0.8,0.8L74.3,66.4l-4.2-4.2c-0.4-0.4-0.9-0.6-1.4-0.6c-0.5,0-1,0.2-1.4,0.6L60,69.6
			c-0.8,0.8-0.8,2,0,2.8l2.6,2.6L61,76.6l-4.6-1.8c-0.7-0.3-1.6-0.1-2.1,0.4L31.1,98.5c-5.8,5.8-5.8,15.2,0,21
			c2.9,2.9,6.7,4.3,10.5,4.3c3.8,0,7.6-1.4,10.5-4.3l23.2-23.2c0.6-0.6,0.7-1.4,0.4-2.1l-1.8-4.6l1.6-1.6l2.6,2.6
			c0.4,0.4,0.9,0.6,1.4,0.6c0.5,0,1-0.2,1.4-0.6l7.4-7.4c0.4-0.4,0.6-0.9,0.6-1.4c0-0.5-0.2-1-0.6-1.4l-4.2-4.2l31.2-31.2l0.8,0.8
			c0.4,0.4,0.9,0.6,1.4,0.6c0.1,0,0.2,0,0.3,0c0.6-0.1,1.2-0.5,1.5-1l8.8-15.8C128.5,28.9,128.3,27.9,127.7,27.3z M69.7,89.8
			l1.8,4.6l-22.3,22.3c-3.8,3.8-9.6,4.2-13.8,1.3l22.6-22.6c0.8-0.8,0.8-2,0-2.8c-0.8-0.8-2-0.8-2.8,0l-22.6,22.6
			c-2.9-4.2-2.5-10.1,1.3-13.8L56.2,79l4.6,1.8c0.7,0.3,1.6,0.1,2.1-0.4l2.5-2.5l7.3,7.3l-2.5,2.5C69.6,88.2,69.5,89.1,69.7,89.8z
			 M79.5,86.4L64.2,71l4.6-4.6l15.4,15.4L79.5,86.4z M81.3,73.4l-4.2-4.2l31.2-31.2l4.2,4.2L81.3,73.4z M117.1,41.2l-7.7-7.7
			l12.2-6.8l2.3,2.3L117.1,41.2z"/>
	</g>
</g>
</svg>
