<?xml version="1.0" encoding="utf-8"?>
<!-- Generator: Adobe Illustrator 18.0.0, SVG Export Plug-In . SVG Version: 6.00 Build 0)  -->
<!DOCTYPE svg PUBLIC "-//W3C//DTD SVG 1.1//EN" "http://www.w3.org/Graphics/SVG/1.1/DTD/svg11.dtd">
<svg version="1.1"
	 id="Layer_1" xmlns:inkscape="http://www.inkscape.org/namespaces/inkscape" xmlns:dc="http://purl.org/dc/elements/1.1/" xmlns:cc="http://creativecommons.org/ns#" xmlns:rdf="http://www.w3.org/1999/02/22-rdf-syntax-ns#" xmlns:svg="http://www.w3.org/2000/svg" xmlns:sodipodi="http://sodipodi.sourceforge.net/DTD/sodipodi-0.dtd" inkscape:version="0.92.3 (2405546, 2018-03-11)" sodipodi:docname="logo-white.svg"
	 xmlns="http://www.w3.org/2000/svg" xmlns:xlink="http://www.w3.org/1999/xlink" x="0px" y="0px" viewBox="6 164.3 835.9 233.6"
	 enable-background="new 6 164.3 835.9 233.6" xml:space="preserve">
<sodipodi:namedview  inkscape:cy="103.46143" inkscape:cx="397.64395" inkscape:zoom="0.68329847" showgrid="false" guidetolerance="10" gridtolerance="10" objecttolerance="10" bordercolor="#666666" pagecolor="#ffffff" borderopacity="1" id="namedview75" inkscape:current-layer="Layer_1" inkscape:window-maximized="1" inkscape:window-y="-8" inkscape:window-x="-8" inkscape:window-height="837" inkscape:pageshadow="2" inkscape:window-width="1600" inkscape:pageopacity="0">
	</sodipodi:namedview>
<path id="path2" fill="#FFFFFF" d="M262.6,260.5c-3.3-0.6-5.5-0.7-6.7-0.7c-6,0-11.3,1.4-16.2,4.3c-4.8,2.8-7.7,6.4-8.9,10.6
	l-8.2,31.9h-17.6l14.9-57.4h17.4l-3.1,11.8c5.2-4.7,9.9-8.2,14.3-10.3c4.3-2.1,9.5-3.3,15.6-3.3c1.7,0,4.1,0.3,7.1,0.9L262.6,260.5
	L262.6,260.5z M359.1,306.7h-17.7l3-11.3c-10.9,8.6-22.8,13-35.6,13c-11.1,0-19.8-3-26.2-8.9c-6.2-6-8.4-13.2-6.2-21.7
	c2.1-7.9,7.9-15,17.4-21.1c9.5-6,19.6-8.9,30.3-8.9c6.7,0,12.6,1.1,17.9,3.7c5.2,2.6,9.1,5.7,11.3,9.6l3-11.6H374L359.1,306.7
	L359.1,306.7z M346.3,264.6c-4.5-3.7-10.6-5.5-18.4-5.5c-7.5,0-14.5,1.8-21.1,5.5c-6.7,3.7-10.5,8.1-11.8,13
	c-1.4,5.4,0.1,10.1,4.5,13.9c4.5,3.8,10.6,5.7,18.4,5.7c7.7,0,14.7-1.8,21.3-5.7s10.3-8.4,11.8-13.5
	C352.5,272.9,350.9,268.5,346.3,264.6L346.3,264.6z M466.2,265.1l-10.6,41.5h-17.9l9.8-38c0.9-3.1,0-5.7-2.4-7.7s-6-3.1-10.5-3.1
	c-6,0-11.5,1.7-16.7,5.1c-5.2,3.4-8.4,7.5-9.6,12.3l-8.1,31.3h-17.6l14.9-57.4h17.4l-2.6,9.6c6.1-3.8,11.5-6.7,16-8.5
	s9.5-2.7,14.6-2.7c7.7,0,13.7,1.7,18.3,5.2C465.7,256.3,467.4,260.4,466.2,265.1L466.2,265.1z M527.7,263.1
	c-2.7-1.6-5.1-2.6-7.1-3.4c-2.1-0.9-4.5-1.1-7.7-1.1c-7.2,0-11.3,1.8-12.2,5.4c-0.7,2.6,3.3,5.1,11.8,7.7c8.5,2.4,14.5,5.1,17.7,8.1
	c3.3,2.8,4.4,6.5,3.3,10.6c-1.1,4.8-5.2,9.1-12,12.8c-6.7,3.5-14,5.4-21.8,5.4c-11.9,0-20.7-3.8-26.4-11.3l15.2-4.5
	c4.1,3.3,8.8,5,14,5c3.7,0,7.1-0.7,10.2-2.1s5-3,5.4-4.8c0.9-3.3-3.3-6.1-12.3-8.6c-8.9-2.6-15-5.1-18.1-7.8c-3-2.6-4.1-6-3.1-9.6
	c1.1-4.8,5-8.8,11.1-12c6.1-3.3,13.2-4.8,21.1-4.8s16.2,2.8,24.5,8.4L527.7,263.1L527.7,263.1z M627.6,265.1L617,306.6h-17.7l9.8-38
	c0.9-3.1,0-5.7-2.4-7.7s-6-3.1-10.5-3.1c-6,0-11.5,1.7-16.7,5.1c-5.2,3.4-8.4,7.5-9.6,12.3l-8.1,31.3h-17.6l14.9-57.4h17.4l-2.6,9.6
	c6.1-3.8,11.5-6.7,16-8.5c4.5-1.8,9.5-2.7,14.6-2.7c7.7,0,13.7,1.7,18.3,5.2C627.2,256.3,628.7,260.4,627.6,265.1L627.6,265.1z
	 M729.8,280.4h-72c0,6,2.6,10.2,7.2,12.9c5,2.7,10.6,4.1,17.1,4.1c10.1,0,19.3-2.8,27.6-8.6l11.3,6.7c-12,8.6-26.1,12.9-42.5,12.9
	c-12.5,0-22.3-2.8-29.2-8.8c-6.9-6-9.4-13-6.9-21.8c2.1-8.1,8.2-15.2,18.3-21.1c10.1-6,21.3-8.9,33.7-8.9c12,0,21.8,3,28.8,9.1
	C730.2,262.8,732.5,270.6,729.8,280.4L729.8,280.4z M691.5,258.7c-12.2,0-22,4-29.2,11.9h51.4C710.1,262.8,702.7,258.7,691.5,258.7
	L691.5,258.7z M799.4,249.2l-2.8,11.1H779l-12,46.3h-17.7l12-46.3h-14l2.8-11.2h14l4.3-16.6H786l-4.3,16.7L799.4,249.2L799.4,249.2z
	"/>
<path id="path8_1_" fill="#FFFFFF" d="M62.6,379.2c27,0,48.9-20.2,48.9-44.8c0-24.7-21.8-44.8-48.9-44.8s-48.9,20.2-48.9,44.8
	C13.7,359,35.7,379.2,62.6,379.2 M62.6,385.5c-30.6,0-55.4-23-55.4-51.2c0-28.2,24.7-51.2,55.4-51.2c30.6,0,55.4,23,55.4,51.2
	C118,362.5,93.3,385.5,62.6,385.5L62.6,385.5L62.6,385.5z"/>
<path id="path8_2_" fill="#FFFFFF" stroke="#FFFFFF" stroke-width="3" stroke-miterlimit="10" d="M62.6,365.9
	c19,0,34.4-14.2,34.4-31.6c0-17.4-15.4-31.6-34.4-31.6s-34.4,14.2-34.4,31.6C28.2,351.7,43.7,365.9,62.6,365.9 M62.6,370.4
	c-21.5,0-39-16.2-39-36.1c0-19.9,17.4-36.1,39-36.1c21.5,0,39,16.2,39,36.1C101.6,354.2,84.2,370.4,62.6,370.4L62.6,370.4
	L62.6,370.4z"/>
<path id="path12" fill="#FFFFFF" d="M799.4,314.5c10.9,0,19.8,7.7,19.8,17s-8.8,17-19.8,17c-10.9,0-19.8-7.7-19.8-17
	S788.3,314.5,799.4,314.5L799.4,314.5z"/>
<polyline id="polyline14" fill="#FFFFFF" points="142.4,192.6 142.4,186.5 812.8,186.5 812.8,192.6 142.4,192.6 "/>
<polyline id="polyline16" fill="#FFFFFF" points="150.7,172.8 150.7,166.8 841.9,166.8 841.9,172.8 150.7,172.8 "/>
<polygon id="polygon18" fill="#FFFFFF" points="83.8,167.3 70.9,209.4 166.5,209.4 135.6,306.6 177,306.6 204.8,210.6 527.8,210.6 
	527.8,204.7 200.4,204.5 172.5,300.6 143.9,300.6 174.8,203.4 79.1,203.3 88.2,172.8 128.8,172.8 128.8,167.1 "/>
<rect id="rect20" x="97.9" y="327.1" fill="#FFFFFF" width="701.3" height="8.5"/>
<g id="g72">
	<g id="g70">
		<path id="path22" fill="#FFFFFF" d="M160,381.9v3.1h-23.2v-33h22.5v3.1h-19.1v11.6h17v3h-17v12.2L160,381.9L160,381.9z"/>
		<path id="path24" fill="#FFFFFF" d="M182.7,385l-7.8-10.3L167,385h-3.8l9.8-12.8l-9.4-12h3.8l7.4,9.6l7.4-9.6h3.7l-9.4,12
			l9.9,12.8H182.7z"/>
		<path id="path26" fill="#FFFFFF" d="M194.9,383.6c-2-1-3.4-2.6-4.5-4.5c-1.1-2-1.6-4.1-1.6-6.5c0-2.4,0.6-4.5,1.6-6.5
			c1.1-2,2.7-3.4,4.5-4.5c2-1,4.1-1.6,6.7-1.6c2.1,0,4.1,0.4,5.7,1.3c1.7,0.9,3.1,2,4,3.7l-2.6,1.7c-0.9-1.3-1.8-2.1-3.1-2.7
			s-2.7-0.9-4.1-0.9c-1.8,0-3.4,0.4-4.8,1.3s-2.6,2-3.4,3.4c-0.9,1.6-1.3,3.1-1.3,5.1c0,2,0.4,3.5,1.3,5.1c0.9,1.6,2,2.6,3.4,3.4
			s3.1,1.3,4.8,1.3c1.6,0,2.8-0.3,4.1-0.9s2.3-1.6,3.1-2.7l2.6,1.7c-1,1.6-2.3,2.8-4,3.7c-1.7,0.9-3.5,1.3-5.7,1.3
			C198.9,385.1,196.7,384.5,194.9,383.6z"/>
		<path id="path28" fill="#FFFFFF" d="M238.8,373.5H218c0.1,2.6,1.3,4.7,3,6.2c1.8,1.6,4.1,2.3,6.8,2.3c1.6,0,3-0.3,4.3-0.9
			c1.3-0.6,2.4-1.3,3.4-2.4l2,2.1c-1.1,1.3-2.4,2.3-4.1,3.1s-3.4,1-5.5,1c-2.6,0-4.8-0.6-6.7-1.6c-2-1.1-3.4-2.6-4.5-4.5
			c-1.1-2-1.6-4.1-1.6-6.5c0-2.4,0.6-4.5,1.6-6.5s2.6-3.4,4.4-4.5c1.8-1,3.8-1.6,6.2-1.6c2.3,0,4.4,0.6,6.2,1.6
			c1.8,1,3.3,2.6,4.3,4.5c1,2,1.6,4.1,1.6,6.5L238.8,373.5z M220.8,365.1c-1.6,1.6-2.6,3.5-2.7,6h17.6c-0.1-2.4-1.1-4.5-2.7-6
			c-1.6-1.6-3.7-2.3-6.1-2.3C224.4,362.7,222.5,363.6,220.8,365.1z"/>
		<path id="path30" fill="#FFFFFF" d="M245.6,350h3.4v35h-3.4V350z"/>
		<path id="path32" fill="#FFFFFF" d="M279.9,373.5h-20.7c0.1,2.6,1.3,4.7,3,6.2c1.8,1.6,4.1,2.3,6.8,2.3c1.6,0,3-0.3,4.3-0.9
			s2.4-1.3,3.4-2.4l2,2.1c-1.1,1.3-2.4,2.3-4.1,3.1c-1.6,0.7-3.4,1-5.5,1c-2.6,0-4.8-0.6-6.7-1.6c-1.8-1-3.4-2.6-4.5-4.5
			c-1.1-2-1.6-4.1-1.6-6.5c0-2.4,0.6-4.5,1.6-6.5s2.6-3.4,4.4-4.5c1.8-1,3.8-1.6,6.2-1.6c2.3,0,4.4,0.6,6.2,1.6
			c1.8,1,3.3,2.6,4.3,4.5c1,2,1.6,4.1,1.6,6.5L279.9,373.5z M261.9,365.1c-1.6,1.6-2.6,3.5-2.7,6h17.6c-0.1-2.4-1.1-4.5-2.7-6
			s-3.7-2.3-6.1-2.3C265.6,362.7,263.6,363.6,261.9,365.1z M272.6,356.2l-4.7-3.8l-4.7,3.8h-3.1l6.1-5.8h3.4l6.1,5.8H272.6z"/>
		<path id="path34" fill="#FFFFFF" d="M306.9,362.7c1.8,1.8,2.7,4.5,2.7,7.9V385h-3.4v-14c0-2.6-0.6-4.5-2-6c-1.3-1.3-3.1-2-5.5-2
			c-2.7,0-4.8,0.9-6.2,2.3c-1.6,1.6-2.3,3.8-2.3,6.7v13h-3.4v-24.8h3.3v4.5c0.9-1.6,2.1-2.7,3.8-3.5s3.4-1.3,5.5-1.3
			C302.5,359.9,304.9,360.9,306.9,362.7z"/>
		<path id="path36" fill="#FFFFFF" d="M322.4,383.6c-2-1-3.4-2.6-4.5-4.5c-1.1-2-1.6-4.1-1.6-6.5c0-2.4,0.6-4.5,1.6-6.5
			c1.1-2,2.7-3.4,4.5-4.5c2-1,4.1-1.6,6.7-1.6c2.1,0,4.1,0.4,5.7,1.3c1.7,0.9,3.1,2,4,3.7l-2.6,1.7c-0.9-1.3-1.8-2.1-3.1-2.7
			c-1.3-0.6-2.7-0.9-4.1-0.9c-1.8,0-3.4,0.4-4.8,1.3s-2.6,2-3.4,3.4s-1.3,3.1-1.3,5.1c0,2,0.4,3.5,1.3,5.1c0.9,1.6,2,2.6,3.4,3.4
			s3.1,1.3,4.8,1.3c1.6,0,2.8-0.3,4.1-0.9s2.3-1.6,3.1-2.7l2.6,1.7c-1,1.6-2.3,2.8-4,3.7c-1.7,0.9-3.5,1.3-5.7,1.3
			C326.6,385.1,324.3,384.5,322.4,383.6z"/>
		<path id="path38" fill="#FFFFFF" d="M345.1,354.1c-0.6-0.6-0.7-1-0.7-1.7c0-0.6,0.1-1.3,0.7-1.6c0.6-0.6,1-0.7,1.7-0.7
			c0.7,0,1.3,0.1,1.7,0.7c0.6,0.4,0.7,1,0.7,1.6c0,0.7-0.1,1.3-0.7,1.7c-0.6,0.6-1,0.7-1.7,0.7C346.3,354.8,345.7,354.4,345.1,354.1
			z M345.3,360.2h3.4V385h-3.4V360.2z"/>
		<path id="path40" fill="#FFFFFF" d="M374,362.3c1.7,1.6,2.6,4,2.6,7.2v15.3h-3.3V381c-0.7,1.3-1.8,2.3-3.4,3.1
			c-1.4,0.7-3.1,1.1-5.2,1.1c-2.7,0-5-0.6-6.7-2c-1.6-1.3-2.4-3.1-2.4-5.2c0-2.1,0.7-3.8,2.3-5.1c1.6-1.3,4-2,7.4-2h7.8v-1.6
			c0-2.1-0.6-3.8-1.8-4.8c-1.3-1.1-3-1.6-5.2-1.6c-1.6,0-3.1,0.3-4.5,0.9c-1.4,0.6-2.7,1.3-3.8,2.1l-1.6-2.6c1.3-1,2.7-2,4.5-2.4
			c1.7-0.6,3.7-0.9,5.5-0.9C369.8,359.9,372.3,360.7,374,362.3z M370.3,381.1c1.3-0.9,2.3-2.1,3.1-3.8v-4.1h-7.8
			c-4.3,0-6.4,1.6-6.4,4.5c0,1.4,0.6,2.6,1.6,3.4c1.1,0.9,2.7,1.3,4.5,1.3S368.9,382.1,370.3,381.1z"/>
		<path id="path42" fill="#FFFFFF" d="M419.5,373.5h-20.7c0.1,2.6,1.3,4.7,3,6.2c1.8,1.6,4.1,2.3,6.8,2.3c1.6,0,3-0.3,4.3-0.9
			c1.3-0.6,2.4-1.3,3.4-2.4l2,2.1c-1.1,1.3-2.4,2.3-4.1,3.1c-1.6,0.7-3.4,1-5.5,1c-2.6,0-4.8-0.6-6.7-1.6c-1.8-1-3.4-2.6-4.5-4.5
			c-1.1-2-1.6-4.1-1.6-6.5c0-2.4,0.6-4.5,1.6-6.5c1-2,2.6-3.4,4.4-4.5c1.8-1,3.8-1.6,6.2-1.6c2.3,0,4.4,0.6,6.2,1.6
			c1.8,1,3.3,2.6,4.3,4.5c1,2,1.6,4.1,1.6,6.5L419.5,373.5z M401.7,365.1c-1.6,1.6-2.6,3.5-2.7,6h17.6c-0.1-2.4-1.1-4.5-2.7-6
			c-1.6-1.6-3.7-2.3-6.1-2.3C405.2,362.7,403.2,363.6,401.7,365.1z"/>
		<path id="path44" fill="#FFFFFF" d="M464.7,362.7c1.7,1.8,2.7,4.5,2.7,7.9V385H464v-14c0-2.6-0.6-4.5-1.8-6c-1.3-1.3-3-2-5.2-2
			c-2.6,0-4.5,0.9-6.1,2.3c-1.6,1.6-2.3,3.8-2.3,6.7v13h-3.4v-14c0-2.6-0.6-4.5-1.8-6c-1.3-1.3-3.1-2-5.2-2c-2.6,0-4.5,0.9-6.1,2.3
			c-1.6,1.6-2.3,3.8-2.3,6.7v13h-3.4v-24.8h3.3v4.5c0.9-1.6,2.1-2.7,3.7-3.4c1.6-0.9,3.4-1.3,5.4-1.3s3.8,0.4,5.4,1.3
			c1.6,0.9,2.7,2.1,3.4,3.8c0.9-1.6,2.3-3,4-3.8c1.7-0.9,3.7-1.4,6-1.4C460.5,359.9,462.9,360.9,464.7,362.7z"/>
		<path id="path46" fill="#FFFFFF" d="M489.5,351.9H503c3.4,0,6.7,0.7,9.2,2.1c2.7,1.4,4.8,3.4,6.2,5.8c1.6,2.6,2.3,5.4,2.3,8.5
			s-0.7,6.1-2.3,8.5c-1.6,2.6-3.5,4.5-6.2,5.8c-2.7,1.4-5.8,2.1-9.2,2.1h-13.5V351.9L489.5,351.9z M502.7,381.9
			c2.8,0,5.4-0.6,7.7-1.7c2.1-1.1,3.8-2.7,5.1-4.8c1.3-2,1.8-4.4,1.8-6.9c0-2.7-0.6-5-1.8-6.9c-1.3-2-2.8-3.7-5.1-4.8
			c-2.1-1.1-4.7-1.7-7.7-1.7h-9.8v26.9H502.7L502.7,381.9z"/>
		<path id="path48" fill="#FFFFFF" d="M527.7,354.1c-0.6-0.6-0.7-1-0.7-1.7c0-0.6,0.1-1.3,0.7-1.6c0.6-0.6,1-0.7,1.7-0.7
			c0.7,0,1.3,0.1,1.7,0.7c0.6,0.4,0.7,1,0.7,1.6c0,0.7-0.1,1.3-0.7,1.7c-0.6,0.6-1,0.7-1.7,0.7C528.7,354.8,528.1,354.4,527.7,354.1
			z M527.7,360.2h3.4V385h-3.4V360.2z"/>
		<path id="path50" fill="#FFFFFF" d="M541.3,384.3c-1.8-0.6-3.3-1.3-4.3-2.3l1.6-2.7c1,0.9,2.3,1.6,3.8,2c1.6,0.4,3.3,0.9,4.8,0.9
			c2.3,0,4-0.3,5-1c1.1-0.7,1.6-1.7,1.6-3c0-0.9-0.3-1.6-0.9-2.1c-0.6-0.6-1.3-0.9-2.3-1.3c-1-0.4-2.1-0.6-3.7-0.9
			c-2-0.4-3.7-0.7-4.8-1.1c-1.1-0.4-2.3-1-3.1-2c-0.9-0.9-1.3-2.3-1.3-3.8c0-2,0.9-3.8,2.6-5.1c1.7-1.3,4.1-2,7.2-2
			c1.6,0,3.3,0.1,4.8,0.6c1.6,0.4,3,1,4,1.6l-1.4,2.7c-2-1.4-4.5-2.1-7.4-2.1c-2.1,0-3.8,0.4-4.8,1.1c-1.1,0.7-1.6,1.7-1.6,3
			c0,0.9,0.3,1.7,0.9,2.3c0.6,0.6,1.4,1,2.3,1.3c0.9,0.3,2.1,0.6,3.8,0.9c2,0.4,3.5,0.7,4.8,1.1c1.3,0.4,2.3,1,3.1,2
			c0.9,0.9,1.3,2.1,1.3,3.8c0,2.1-0.9,3.8-2.7,5.2c-1.8,1.3-4.3,2-7.5,2C545,385.1,543.1,384.8,541.3,384.3z"/>
		<path id="path52" fill="#FFFFFF" d="M576.4,383.4c-0.6,0.6-1.4,1-2.3,1.3c-0.9,0.3-2,0.4-2.8,0.4c-2.3,0-4.1-0.6-5.4-2
			c-1.3-1.3-2-3.1-2-5.2V363h-4.5v-2.8h4.5v-5.4h3.4v5.4h7.5v2.8h-7.5v14.7c0,1.6,0.4,2.7,1.1,3.4c0.7,0.9,1.8,1.1,3.1,1.1
			c0.7,0,1.3-0.1,2-0.3c0.6-0.1,1.3-0.6,1.6-0.9L576.4,383.4z"/>
		<path id="path54" fill="#FFFFFF" d="M589.2,361.2c1.6-0.9,3.4-1.3,5.8-1.3v3.3h-0.9c-2.7,0-4.7,0.9-6.1,2.4
			c-1.6,1.6-2.3,3.8-2.3,6.7v12.6h-3.4V360h3.3v4.8C586.5,363.3,587.8,362,589.2,361.2z"/>
		<path id="path56" fill="#FFFFFF" d="M600.9,354.1c-0.6-0.6-0.7-1-0.7-1.7c0-0.6,0.1-1.3,0.7-1.6c0.6-0.6,1-0.7,1.7-0.7
			s1.3,0.1,1.7,0.7c0.6,0.4,0.7,1,0.7,1.6c0,0.7-0.1,1.3-0.7,1.7c-0.6,0.4-1,0.7-1.7,0.7S601.4,354.4,600.9,354.1z M601.1,360.2h3.4
			V385h-3.4V360.2z"/>
		<path id="path58" fill="#FFFFFF" d="M632.7,361.6c2,1,3.4,2.6,4.5,4.5c1.1,2,1.6,4.1,1.6,6.5c0,2.4-0.6,4.7-1.6,6.5
			c-1,2-2.6,3.4-4.5,4.5c-2,1.1-4,1.6-6.2,1.6c-2,0-4-0.4-5.5-1.3c-1.6-0.9-3-2.1-4-3.8v4.8h-3.3v-34.9h3.4V365c1-1.6,2.3-2.8,4-3.7
			c1.6-0.9,3.4-1.3,5.5-1.3C628.7,359.9,630.9,360.5,632.7,361.6z M630.9,381c1.4-0.9,2.6-2,3.4-3.4c0.9-1.6,1.3-3.1,1.3-5.1
			s-0.4-3.5-1.3-5.1c-0.9-1.6-2-2.7-3.4-3.4c-1.4-0.9-3-1.3-4.7-1.3c-1.7,0-3.4,0.4-4.8,1.3c-1.4,0.9-2.6,2-3.3,3.4
			c-0.9,1.6-1.3,3.1-1.3,5.1s0.4,3.5,1.3,5.1c0.9,1.6,2,2.7,3.3,3.4c1.4,0.9,3,1.3,4.8,1.3C628,382.1,629.4,381.7,630.9,381z"/>
		<path id="path60" fill="#FFFFFF" d="M667.8,360.2V385h-3.3v-4.5c-0.9,1.6-2.1,2.7-3.7,3.5s-3.3,1.3-5.2,1.3
			c-3.3,0-5.8-0.9-7.7-2.7c-1.8-1.8-2.8-4.5-2.8-7.9v-14.5h3.4v14c0,2.7,0.6,4.5,2,6c1.3,1.3,3.1,2,5.5,2c2.7,0,4.7-0.9,6.2-2.3
			c1.6-1.6,2.3-3.8,2.3-6.7v-13L667.8,360.2L667.8,360.2z"/>
		<path id="path62" fill="#FFFFFF" d="M677.2,354.1c-0.6-0.6-0.7-1-0.7-1.7c0-0.6,0.1-1.3,0.7-1.6c0.6-0.6,1-0.7,1.7-0.7
			c0.7,0,1.3,0.1,1.7,0.7c0.6,0.4,0.7,1,0.7,1.6c0,0.7-0.1,1.3-0.7,1.7c-0.6,0.4-1,0.7-1.7,0.7C678.3,354.8,677.8,354.4,677.2,354.1
			z M677.2,360.2h3.4V385h-3.4V360.2z"/>
		<path id="path64" fill="#FFFFFF" d="M693.6,383.6c-2-1-3.4-2.6-4.5-4.5c-1.1-2-1.6-4.1-1.6-6.5c0-2.4,0.6-4.5,1.6-6.5
			c1.1-2,2.7-3.4,4.5-4.5c2-1,4.1-1.6,6.7-1.6c2.1,0,4.1,0.4,5.7,1.3c1.6,0.9,3.1,2,4,3.7l-2.6,1.7c-0.9-1.3-1.8-2.1-3.1-2.7
			c-1.3-0.6-2.7-0.9-4.1-0.9c-1.8,0-3.4,0.4-4.8,1.3s-2.6,2-3.4,3.4c-0.9,1.6-1.3,3.1-1.3,5.1c0,2,0.4,3.5,1.3,5.1
			c0.9,1.6,2,2.6,3.4,3.4s3.1,1.3,4.8,1.3c1.6,0,2.8-0.3,4.1-0.9s2.3-1.6,3.1-2.7l2.6,1.7c-1,1.6-2.3,2.8-4,3.7
			c-1.6,0.9-3.5,1.3-5.7,1.3C697.7,385.1,695.5,384.5,693.6,383.6z M694.3,394.2l0.9-1.8c0.9,0.6,2,0.9,3.1,0.9
			c0.9,0,1.6-0.1,2.1-0.6c0.6-0.4,0.7-0.9,0.7-1.6c0-0.6-0.1-1.3-0.7-1.6c-0.6-0.3-1.3-0.6-2.3-0.6H697l1.1-4.3h2l-0.7,2.7
			c1.3,0.1,2.3,0.6,3,1.3c0.7,0.7,1,1.6,1,2.7c0,1.3-0.6,2.3-1.4,3c-1,0.7-2.3,1.1-3.8,1.1C696.6,395.3,695.3,394.9,694.3,394.2z"/>
		<path id="path66" fill="#FFFFFF" d="M732.6,362.3c1.7,1.6,2.6,4,2.6,7.2v15.3h-3.4V381c-0.7,1.3-1.8,2.3-3.4,3.1
			c-1.4,0.7-3.1,1.1-5.2,1.1c-2.7,0-5-0.6-6.7-2c-1.6-1.3-2.4-3.1-2.4-5.2c0-2.1,0.7-3.8,2.3-5.1s4-2,7.4-2h7.8v-1.6
			c0-2.1-0.6-3.8-1.8-4.8c-1.3-1.1-3-1.6-5.2-1.6c-1.6,0-3.1,0.3-4.5,0.9c-1.4,0.6-2.7,1.3-3.8,2.1l-1.6-2.6c1.3-1,2.7-2,4.5-2.4
			c1.7-0.6,3.7-0.9,5.5-0.9C728.4,359.9,730.8,360.7,732.6,362.3z M728.8,381.1c1.3-0.9,2.3-2.1,3.1-3.8v-4.1h-7.8
			c-4.3,0-6.4,1.6-6.4,4.5c0,1.4,0.6,2.6,1.6,3.4c1.1,0.9,2.7,1.3,4.5,1.3C725.7,382.4,727.5,382.1,728.8,381.1z M726.4,355.5
			c-0.6-0.3-1.3-0.9-1.8-1.4c-0.6-0.6-1-0.9-1.3-1c-0.3-0.1-0.7-0.3-1-0.3c-0.7,0-1.3,0.3-1.7,0.9c-0.4,0.6-0.7,1.3-0.7,2.3h-2
			c0.1-1.6,0.6-2.8,1.3-3.8c0.7-1,1.7-1.4,3.1-1.4c0.7,0,1.3,0.1,2,0.6c0.6,0.3,1.3,0.9,2,1.4c0.6,0.4,0.9,0.9,1.3,1
			c0.3,0.1,0.7,0.3,1.1,0.3c0.7,0,1.3-0.3,1.7-0.9c0.4-0.6,0.7-1.3,0.7-2.1h2c-0.1,1.6-0.6,2.7-1.3,3.7c-0.7,0.9-1.7,1.4-3.1,1.4
			C727.7,355.9,727.1,355.8,726.4,355.5z"/>
		<path id="path68" fill="#FFFFFF" d="M748.1,383.6c-2-1.1-3.4-2.6-4.5-4.5c-1.1-2-1.6-4.1-1.6-6.5c0-2.4,0.6-4.5,1.6-6.5
			c1.1-2,2.7-3.4,4.5-4.5c1.8-1,4.1-1.6,6.4-1.6s4.5,0.6,6.4,1.6c2,1,3.4,2.6,4.5,4.5c1,2,1.6,4.1,1.6,6.5c0,2.4-0.6,4.5-1.6,6.5
			s-2.6,3.4-4.5,4.5c-2,1.1-4.1,1.6-6.4,1.6C752,385.1,749.9,384.5,748.1,383.6z M759.1,381c1.4-0.9,2.4-2,3.3-3.4
			c0.9-1.6,1.3-3.1,1.3-5.1s-0.4-3.5-1.3-5.1c-0.9-1.6-1.8-2.7-3.3-3.4c-1.4-0.9-3-1.3-4.8-1.3c-1.7,0-3.4,0.4-4.8,1.3
			s-2.6,2-3.3,3.4c-0.9,1.6-1.3,3.1-1.3,5.1s0.4,3.5,1.3,5.1c0.9,1.6,2,2.7,3.3,3.4c1.4,0.9,3,1.3,4.8,1.3
			C756.3,382.1,757.7,381.7,759.1,381z"/>
	</g>
</g>
</svg>
