<?xml version="1.0" encoding="utf-8"?>
<!-- Generator: Adobe Illustrator 18.0.0, SVG Export Plug-In . SVG Version: 6.00 Build 0)  -->
<!DOCTYPE svg PUBLIC "-//W3C//DTD SVG 1.1//EN" "http://www.w3.org/Graphics/SVG/1.1/DTD/svg11.dtd">
<svg version="1.1"
	 id="Layer_1" xmlns:dc="http://purl.org/dc/elements/1.1/" xmlns:cc="http://creativecommons.org/ns#" xmlns:sodipodi="http://sodipodi.sourceforge.net/DTD/sodipodi-0.dtd" xmlns:inkscape="http://www.inkscape.org/namespaces/inkscape" xmlns:rdf="http://www.w3.org/1999/02/22-rdf-syntax-ns#" xmlns:svg="http://www.w3.org/2000/svg" inkscape:version="0.92.3 (2405546, 2018-03-11)" sodipodi:docname="logo-footer.svg"
	 xmlns="http://www.w3.org/2000/svg" xmlns:xlink="http://www.w3.org/1999/xlink" x="0px" y="0px" viewBox="1.5 432.5 595.2 157.3"
	 enable-background="new 1.5 432.5 595.2 157.3" xml:space="preserve">
<sodipodi:namedview  inkscape:cy="82" inkscape:cx="297" inkscape:zoom="0.48316498" showgrid="false" guidetolerance="10" gridtolerance="10" objecttolerance="10" borderopacity="1" pagecolor="#ffffff" bordercolor="#666666" id="namedview75" inkscape:current-layer="Layer_1" inkscape:window-maximized="1" inkscape:window-y="-8" inkscape:window-x="-8" inkscape:window-height="837" inkscape:window-width="1600" inkscape:pageshadow="2" inkscape:pageopacity="0">
	</sodipodi:namedview>
<path id="path2" fill="#FFFFFF" d="M183.9,500.2c-2.3-0.4-3.9-0.5-4.7-0.5c-4.2,0-8.1,1-11.5,3s-5.5,4.5-6.4,7.6l-5.9,22.7h-12.5
	l10.6-40.9h12.4l-2.2,8.4c3.7-3.3,7.1-5.9,10.2-7.4c3-1.5,6.8-2.3,11.1-2.3c1.2,0,2.9,0.2,5.1,0.6L183.9,500.2L183.9,500.2z
	 M252.7,533.2h-12.6l2.1-8.1c-7.8,6.2-16.3,9.3-25.4,9.3c-7.9,0-14.1-2.1-18.7-6.4c-4.4-4.2-6-9.4-4.4-15.5
	c1.5-5.7,5.7-10.7,12.4-15.1c6.8-4.2,13.9-6.4,21.6-6.4c4.7,0,9,0.8,12.7,2.6c3.7,1.8,6.5,4,8.1,6.9l2.1-8.3h12.6L252.7,533.2
	L252.7,533.2z M243.5,503.2c-3.2-2.6-7.6-3.9-13.1-3.9c-5.4,0-10.3,1.3-15.1,3.9s-7.5,5.8-8.4,9.3c-1,3.8,0.1,7.2,3.2,9.9
	c3.2,2.7,7.6,4,13.1,4c5.5,0,10.5-1.3,15.2-4c4.6-2.7,7.4-6,8.4-9.6C247.9,509,246.8,505.9,243.5,503.2L243.5,503.2z M328.9,503.5
	l-7.6,29.6h-12.7l7-27.1c0.6-2.2,0-4-1.7-5.5c-1.7-1.4-4.2-2.2-7.5-2.2c-4.2,0-8.2,1.2-11.9,3.6c-3.7,2.4-6,5.4-6.9,8.8l-5.8,22.3
	h-12.5l10.6-40.9h12.4l-1.8,6.9c4.3-2.7,8.2-4.7,11.4-6.1s6.8-1.9,10.4-1.9c5.5,0,9.8,1.2,13,3.7
	C328.6,497.2,329.8,500.1,328.9,503.5L328.9,503.5z M372.8,502.1c-1.9-1.1-3.6-1.8-5.1-2.4c-1.5-0.6-3.2-0.8-5.5-0.8
	c-5.2,0-8.1,1.3-8.7,3.8c-0.5,1.8,2.3,3.6,8.4,5.5c6.1,1.7,10.3,3.6,12.6,5.8c2.3,2,3.1,4.6,2.3,7.6c-0.8,3.4-3.7,6.5-8.6,9.1
	c-4.7,2.5-10,3.8-15.6,3.8c-8.5,0-14.7-2.7-18.8-8.1l10.8-3.2c2.9,2.3,6.3,3.5,10,3.5c2.6,0,5.1-0.5,7.3-1.5c2.2-1,3.5-2.1,3.8-3.4
	c0.6-2.3-2.3-4.3-8.8-6.2c-6.4-1.8-10.7-3.6-12.9-5.6c-2.1-1.8-2.9-4.2-2.2-6.9c0.8-3.4,3.5-6.3,7.9-8.6c4.3-2.3,9.4-3.4,15.1-3.4
	s11.5,2,17.5,6L372.8,502.1L372.8,502.1z M444,503.5l-7.6,29.6h-12.6l7-27.1c0.6-2.2,0-4-1.7-5.5c-1.7-1.4-4.2-2.2-7.5-2.2
	c-4.2,0-8.2,1.2-11.9,3.6c-3.7,2.4-6,5.4-6.9,8.8l-5.8,22.3h-12.5l10.6-40.9h12.4l-1.8,6.9c4.3-2.7,8.2-4.7,11.4-6.1
	s6.8-1.9,10.4-1.9c5.5,0,9.8,1.2,13,3.7C443.7,497.2,444.8,500.1,444,503.5L444,503.5z M516.8,514.4h-51.3c0,4.2,1.8,7.3,5.2,9.2
	c3.5,1.9,7.6,2.9,12.2,2.9c7.2,0,13.7-2,19.7-6.2l8.1,4.7c-8.6,6.2-18.6,9.2-30.3,9.2c-8.9,0-15.9-2-20.8-6.3s-6.7-9.3-4.9-15.6
	c1.5-5.8,5.9-10.8,13-15.1s15.2-6.4,24-6.4c8.6,0,15.6,2.1,20.5,6.5C517.1,501.9,518.7,507.4,516.8,514.4L516.8,514.4z M489.5,498.9
	c-8.7,0-15.7,2.8-20.8,8.5h36.7C502.8,501.9,497.5,498.9,489.5,498.9L489.5,498.9z M566.4,492.2l-2,7.9h-12.5l-8.6,33h-12.6l8.6-33
	h-10l2-8h10l3-11.8h12.6l-3,11.9L566.4,492.2L566.4,492.2z"/>
<path id="path4" fill="#FFFFFF" d="M43.5,513.4c22.2,0,40.2,16.8,40.2,37.5c0,20.7-18,37.4-40.2,37.4S3.3,571.5,3.3,550.7
	C3.3,530,21.3,513.4,43.5,513.4L43.5,513.4z"/>
<path id="path6" fill="none" d="M43.5,516.3c20.2,0,36.6,15.5,36.6,34.4s-16.4,34.5-36.6,34.5S6.9,569.8,6.9,550.8
	C6.9,531.8,23.4,516.3,43.5,516.3L43.5,516.3z"/>
<path id="path8" fill="#888888" stroke="#888888" stroke-width="4" stroke-miterlimit="10" d="M43.5,577.7c16.3,0,29.4-12.1,29.4-27
	c0-14.8-13.1-27-29.4-27s-29.4,12.1-29.4,27C14.1,565.6,27.3,577.7,43.5,577.7 M43.5,581.6c-18.4,0-33.3-13.8-33.3-30.8
	c0-17,14.8-30.8,33.3-30.8c18.4,0,33.3,13.8,33.3,30.8C76.8,567.7,62,581.6,43.5,581.6L43.5,581.6L43.5,581.6z"/>
<path id="path10" fill="#888888" d="M43.5,530.4c11.9,0,21.6,9.1,21.6,20.4c0,11.2-9.7,20.4-21.6,20.4s-21.6-9.1-21.6-20.4
	C22,539.5,31.7,530.4,43.5,530.4L43.5,530.4z"/>
<path id="path12" fill="#FFFFFF" d="M566.4,538.7c7.8,0,14.1,5.5,14.1,12.1c0,6.7-6.3,12.1-14.1,12.1c-7.8,0-14.1-5.5-14.1-12.1
	C552.3,544.2,558.5,538.7,566.4,538.7L566.4,538.7z"/>
<polyline id="polyline14" fill="#FFFFFF" points="98.2,451.9 98.2,447.5 576,447.5 576,451.9 98.2,451.9 "/>
<polyline id="polyline16" fill="#FFFFFF" points="104.1,437.7 104.1,433.5 596.7,433.5 596.7,437.7 104.1,437.7 "/>
<polygon id="polygon18" fill="#FFFFFF" points="56.4,433.8 47.2,463.8 115.4,463.8 93.4,533.1 122.9,533.1 142.7,464.7 372.9,464.7 
	372.9,460.4 139.5,460.3 119.6,528.8 99.2,528.8 121.3,459.5 53.1,459.4 59.5,437.7 88.5,437.7 88.5,433.7 "/>
<rect id="rect20" x="66.5" y="547.7" fill="#FFFFFF" width="499.8" height="6.1"/>
</svg>
