<?xml version="1.0" encoding="UTF-8" standalone="no"?>
<!-- Generator: Adobe Illustrator 18.0.0, SVG Export Plug-In . SVG Version: 6.00 Build 0)  -->

<svg
   xmlns:dc="http://purl.org/dc/elements/1.1/"
   xmlns:cc="http://creativecommons.org/ns#"
   xmlns:rdf="http://www.w3.org/1999/02/22-rdf-syntax-ns#"
   xmlns:svg="http://www.w3.org/2000/svg"
   xmlns="http://www.w3.org/2000/svg"
   xmlns:sodipodi="http://sodipodi.sourceforge.net/DTD/sodipodi-0.dtd"
   xmlns:inkscape="http://www.inkscape.org/namespaces/inkscape"
   version="1.1"
   id="Layer_1"
   x="0px"
   y="0px"
   viewBox="-119.3 304.5 594 164"
   enable-background="new -119.3 304.5 594 164"
   xml:space="preserve"
   sodipodi:docname="logo-white.svg"
   inkscape:version="0.92.3 (2405546, 2018-03-11)"><metadata
   id="metadata79"><rdf:RDF><cc:Work
       rdf:about=""><dc:format>image/svg+xml</dc:format><dc:type
         rdf:resource="http://purl.org/dc/dcmitype/StillImage" /></cc:Work></rdf:RDF></metadata><defs
   id="defs77" /><sodipodi:namedview
   pagecolor="#ffffff"
   bordercolor="#666666"
   borderopacity="1"
   objecttolerance="10"
   gridtolerance="10"
   guidetolerance="10"
   inkscape:pageopacity="0"
   inkscape:pageshadow="2"
   inkscape:window-width="1600"
   inkscape:window-height="837"
   id="namedview75"
   showgrid="false"
   inkscape:zoom="0.68329847"
   inkscape:cx="397.64395"
   inkscape:cy="103.46143"
   inkscape:window-x="-8"
   inkscape:window-y="-8"
   inkscape:window-maximized="1"
   inkscape:current-layer="Layer_1" />
<path
   fill="#FFFFFF"
   d="M61,373.5c-2.3-0.4-3.9-0.5-4.7-0.5c-4.2,0-8,1-11.4,3c-3.4,2-5.4,4.5-6.3,7.5l-5.8,22.5H20.4l10.5-40.5  h12.3l-2.2,8.3c3.7-3.3,7-5.8,10.1-7.3c3-1.5,6.7-2.3,11-2.3c1.2,0,2.9,0.2,5,0.6L61,373.5L61,373.5z M129.1,406.1h-12.5l2.1-8  c-7.7,6.1-16.1,9.2-25.1,9.2c-7.8,0-14-2.1-18.5-6.3c-4.4-4.2-5.9-9.3-4.4-15.3c1.5-5.6,5.6-10.6,12.3-14.9  c6.7-4.2,13.8-6.3,21.4-6.3c4.7,0,8.9,0.8,12.6,2.6s6.4,4,8,6.8l2.1-8.2h12.5L129.1,406.1L129.1,406.1z M120,376.4  c-3.2-2.6-7.5-3.9-13-3.9c-5.3,0-10.2,1.3-14.9,3.9s-7.4,5.7-8.3,9.2c-1,3.8,0.1,7.1,3.2,9.8c3.2,2.7,7.5,4,13,4  c5.4,0,10.4-1.3,15-4c4.6-2.7,7.3-5.9,8.3-9.5C124.4,382.2,123.3,379.1,120,376.4L120,376.4z M204.6,376.7l-7.5,29.3h-12.6l6.9-26.8  c0.6-2.2,0-4-1.7-5.4c-1.7-1.4-4.2-2.2-7.4-2.2c-4.2,0-8.1,1.2-11.8,3.6c-3.7,2.4-5.9,5.3-6.8,8.7l-5.7,22.1h-12.4l10.5-40.5h12.3  l-1.8,6.8c4.3-2.7,8.1-4.7,11.3-6c3.2-1.3,6.7-1.9,10.3-1.9c5.4,0,9.7,1.2,12.9,3.7C204.3,370.5,205.5,373.4,204.6,376.7  L204.6,376.7z M248,375.3c-1.9-1.1-3.6-1.8-5-2.4c-1.5-0.6-3.2-0.8-5.4-0.8c-5.1,0-8,1.3-8.6,3.8c-0.5,1.8,2.3,3.6,8.3,5.4  c6,1.7,10.2,3.6,12.5,5.7c2.3,2,3.1,4.6,2.3,7.5c-0.8,3.4-3.7,6.4-8.5,9c-4.7,2.5-9.9,3.8-15.4,3.8c-8.4,0-14.6-2.7-18.6-8l10.7-3.2  c2.9,2.3,6.2,3.5,9.9,3.5c2.6,0,5-0.5,7.2-1.5s3.5-2.1,3.8-3.4c0.6-2.3-2.3-4.3-8.7-6.1c-6.3-1.8-10.6-3.6-12.8-5.5  c-2.1-1.8-2.9-4.2-2.2-6.8c0.8-3.4,3.5-6.2,7.8-8.5c4.3-2.3,9.3-3.4,14.9-3.4s11.4,2,17.3,5.9L248,375.3L248,375.3z M318.5,376.7  l-7.5,29.3h-12.5l6.9-26.8c0.6-2.2,0-4-1.7-5.4c-1.7-1.4-4.2-2.2-7.4-2.2c-4.2,0-8.1,1.2-11.8,3.6c-3.7,2.4-5.9,5.3-6.8,8.7  l-5.7,22.1h-12.4l10.5-40.5h12.3l-1.8,6.8c4.3-2.7,8.1-4.7,11.3-6s6.7-1.9,10.3-1.9c5.4,0,9.7,1.2,12.9,3.7  C318.2,370.5,319.3,373.4,318.5,376.7L318.5,376.7z M390.6,387.5h-50.8c0,4.2,1.8,7.2,5.1,9.1c3.5,1.9,7.5,2.9,12.1,2.9  c7.1,0,13.6-2,19.5-6.1l8,4.7c-8.5,6.1-18.4,9.1-30,9.1c-8.8,0-15.7-2-20.6-6.2c-4.9-4.2-6.6-9.2-4.9-15.4  c1.5-5.7,5.8-10.7,12.9-14.9c7.1-4.2,15-6.3,23.8-6.3c8.5,0,15.4,2.1,20.3,6.4C390.9,375.1,392.5,380.6,390.6,387.5L390.6,387.5z   M363.6,372.2c-8.6,0-15.5,2.8-20.6,8.4h36.3C376.7,375.1,371.5,372.2,363.6,372.2L363.6,372.2z M439.7,365.5l-2,7.8h-12.4  l-8.5,32.7h-12.5l8.5-32.7h-9.9l2-7.9h9.9l3-11.7h12.5l-3,11.8H439.7L439.7,365.5z"
   id="path2" />
<path
   fill="#FFFFFF"
   d="M-78,386.5c22,0,39.8,16.6,39.8,37.1S-56,460.6-78,460.6s-39.8-16.6-39.8-37.1  C-117.8,403-100,386.5-78,386.5L-78,386.5z"
   id="path4" />
<path
   fill="none"
   d="M-78,389.4c20,0,36.2,15.3,36.2,34.1S-58,457.7-78,457.7s-36.2-15.3-36.2-34.1  C-114.2,404.7-97.9,389.4-78,389.4L-78,389.4z"
   id="path6" />
<path
   fill="#002A50"
   stroke="#002A50"
   stroke-width="4"
   stroke-miterlimit="10"
   d="M-78,450.2c16.1,0,29.1-12,29.1-26.7  s-13-26.7-29.1-26.7s-29.1,12-29.1,26.7S-94,450.2-78,450.2 M-78,454c-18.2,0-33-13.7-33-30.5c0-16.8,14.7-30.5,33-30.5  c18.2,0,33,13.7,33,30.5S-59.7,454-78,454L-78,454L-78,454z"
   id="path8" />
<path
   fill="#002A50"
   d="M-78,403.4c11.8,0,21.4,9,21.4,20.2c0,11.1-9.6,20.2-21.4,20.2s-21.4-9-21.4-20.2  C-99.3,412.4-89.7,403.4-78,403.4L-78,403.4z"
   id="path10" />
<path
   fill="#FFFFFF"
   d="M439.7,411.6c7.7,0,14,5.4,14,12s-6.2,12-14,12c-7.7,0-14-5.4-14-12S431.9,411.6,439.7,411.6L439.7,411.6z"
   id="path12" />
<polyline
   fill="#FFFFFF"
   points="-23.8,325.6 -23.8,321.3 449.2,321.3 449.2,325.6 -23.8,325.6 "
   id="polyline14" />
<polyline
   fill="#FFFFFF"
   points="-18,311.6 -18,307.4 469.7,307.4 469.7,311.6 -18,311.6 "
   id="polyline16" />
<polygon
   fill="#FFFFFF"
   points="-65.2,307.7 -74.3,337.4 -6.8,337.4 -28.6,406 0.6,406 20.2,338.3 248.1,338.3 248.1,334.1   17.1,334 -2.6,401.8 -22.8,401.8 -1,333.2 -68.5,333.1 -62.1,311.6 -33.4,311.6 -33.4,307.6 "
   id="polygon18" />
<rect
   x="-55.2"
   y="420.5"
   width="494.8"
   height="6"
   id="rect20"
   fill="#FFFFFF" />
<g
   id="g72">
	<g
   id="g70">
		<path
   fill="#FFFFFF"
   d="M-11.4,459.1v2.2h-16.4V438h15.9v2.2h-13.5v8.2h12v2.1h-12v8.6H-11.4z"
   id="path22" />
		<path
   fill="#FFFFFF"
   d="M4.6,461.3l-5.5-7.3l-5.6,7.3h-2.7l6.9-9l-6.6-8.5h2.7l5.2,6.8l5.2-6.8h2.6l-6.6,8.5l7,9H4.6z"
   id="path24" />
		<path
   fill="#FFFFFF"
   d="M13.2,460.3c-1.4-0.7-2.4-1.8-3.2-3.2s-1.1-2.9-1.1-4.6c0-1.7,0.4-3.2,1.1-4.6c0.8-1.4,1.9-2.4,3.2-3.2    c1.4-0.7,2.9-1.1,4.7-1.1c1.5,0,2.9,0.3,4,0.9c1.2,0.6,2.2,1.4,2.8,2.6l-1.8,1.2c-0.6-0.9-1.3-1.5-2.2-1.9    c-0.9-0.4-1.9-0.6-2.9-0.6c-1.3,0-2.4,0.3-3.4,0.9s-1.8,1.4-2.4,2.4c-0.6,1.1-0.9,2.2-0.9,3.6c0,1.4,0.3,2.5,0.9,3.6    c0.6,1.1,1.4,1.8,2.4,2.4c1,0.6,2.2,0.9,3.4,0.9c1.1,0,2-0.2,2.9-0.6s1.6-1.1,2.2-1.9l1.8,1.2c-0.7,1.1-1.6,2-2.8,2.6    c-1.2,0.6-2.5,0.9-4,0.9C16,461.4,14.5,461,13.2,460.3z"
   id="path26" />
		<path
   fill="#FFFFFF"
   d="M44.2,453.2H29.5c0.1,1.8,0.9,3.3,2.1,4.4c1.3,1.1,2.9,1.6,4.8,1.6c1.1,0,2.1-0.2,3-0.6    c0.9-0.4,1.7-0.9,2.4-1.7l1.4,1.5c-0.8,0.9-1.7,1.6-2.9,2.2s-2.4,0.7-3.9,0.7c-1.8,0-3.4-0.4-4.7-1.1c-1.4-0.8-2.4-1.8-3.2-3.2    c-0.8-1.4-1.1-2.9-1.1-4.6s0.4-3.2,1.1-4.6c0.7-1.4,1.8-2.4,3.1-3.2c1.3-0.7,2.7-1.1,4.4-1.1c1.6,0,3.1,0.4,4.4,1.1    c1.3,0.7,2.3,1.8,3,3.2c0.7,1.4,1.1,2.9,1.1,4.6L44.2,453.2z M31.5,447.3c-1.1,1.1-1.8,2.5-1.9,4.2H42c-0.1-1.7-0.8-3.2-1.9-4.2    c-1.1-1.1-2.6-1.6-4.3-1.6C34,445.6,32.7,446.2,31.5,447.3z"
   id="path28" />
		<path
   fill="#FFFFFF"
   d="M49,436.6h2.4v24.7H49V436.6z"
   id="path30" />
		<path
   fill="#FFFFFF"
   d="M73.2,453.2H58.6c0.1,1.8,0.9,3.3,2.1,4.4c1.3,1.1,2.9,1.6,4.8,1.6c1.1,0,2.1-0.2,3-0.6    c0.9-0.4,1.7-0.9,2.4-1.7l1.4,1.5c-0.8,0.9-1.7,1.6-2.9,2.2c-1.1,0.5-2.4,0.7-3.9,0.7c-1.8,0-3.4-0.4-4.7-1.1s-2.4-1.8-3.2-3.2    c-0.8-1.4-1.1-2.9-1.1-4.6s0.4-3.2,1.1-4.6c0.7-1.4,1.8-2.4,3.1-3.2c1.3-0.7,2.7-1.1,4.4-1.1c1.6,0,3.1,0.4,4.4,1.1    c1.3,0.7,2.3,1.8,3,3.2c0.7,1.4,1.1,2.9,1.1,4.6L73.2,453.2z M60.5,447.3c-1.1,1.1-1.8,2.5-1.9,4.2H71c-0.1-1.7-0.8-3.2-1.9-4.2    s-2.6-1.6-4.3-1.6C63.1,445.6,61.7,446.2,60.5,447.3z M68,441l-3.3-2.7l-3.3,2.7h-2.2l4.3-4.1h2.4l4.3,4.1H68z"
   id="path32" />
		<path
   fill="#FFFFFF"
   d="M92.2,445.6c1.3,1.3,1.9,3.2,1.9,5.6v10.1h-2.4v-9.9c0-1.8-0.4-3.2-1.4-4.2c-0.9-0.9-2.2-1.4-3.9-1.4    c-1.9,0-3.4,0.6-4.4,1.6c-1.1,1.1-1.6,2.7-1.6,4.7v9.2h-2.4v-17.5h2.3v3.2c0.6-1.1,1.5-1.9,2.7-2.5s2.4-0.9,3.9-0.9    C89.1,443.6,90.8,444.3,92.2,445.6z"
   id="path34" />
		<path
   fill="#FFFFFF"
   d="M103.2,460.3c-1.4-0.7-2.4-1.8-3.2-3.2c-0.8-1.4-1.1-2.9-1.1-4.6c0-1.7,0.4-3.2,1.1-4.6    c0.8-1.4,1.9-2.4,3.2-3.2c1.4-0.7,2.9-1.1,4.7-1.1c1.5,0,2.9,0.3,4,0.9c1.2,0.6,2.2,1.4,2.8,2.6l-1.8,1.2    c-0.6-0.9-1.3-1.5-2.2-1.9c-0.9-0.4-1.9-0.6-2.9-0.6c-1.3,0-2.4,0.3-3.4,0.9c-1,0.6-1.8,1.4-2.4,2.4s-0.9,2.2-0.9,3.6    c0,1.4,0.3,2.5,0.9,3.6c0.6,1.1,1.4,1.8,2.4,2.4s2.2,0.9,3.4,0.9c1.1,0,2-0.2,2.9-0.6s1.6-1.1,2.2-1.9l1.8,1.2    c-0.7,1.1-1.6,2-2.8,2.6c-1.2,0.6-2.5,0.9-4,0.9C106.1,461.4,104.5,461,103.2,460.3z"
   id="path36" />
		<path
   fill="#FFFFFF"
   d="M119.2,439.5c-0.4-0.4-0.5-0.7-0.5-1.2c0-0.4,0.1-0.9,0.5-1.1c0.4-0.4,0.7-0.5,1.2-0.5    c0.5,0,0.9,0.1,1.2,0.5c0.4,0.3,0.5,0.7,0.5,1.1c0,0.5-0.1,0.9-0.5,1.2c-0.4,0.4-0.7,0.5-1.2,0.5C120,440,119.6,439.7,119.2,439.5    z M119.3,443.8h2.4v17.5h-2.4V443.8z"
   id="path38" />
		<path
   fill="#FFFFFF"
   d="M139.6,445.3c1.2,1.1,1.8,2.8,1.8,5.1v10.8h-2.3v-2.7c-0.5,0.9-1.3,1.6-2.4,2.2c-1,0.5-2.2,0.8-3.7,0.8    c-1.9,0-3.5-0.4-4.7-1.4c-1.1-0.9-1.7-2.2-1.7-3.7c0-1.5,0.5-2.7,1.6-3.6c1.1-0.9,2.8-1.4,5.2-1.4h5.5v-1.1c0-1.5-0.4-2.7-1.3-3.4    c-0.9-0.8-2.1-1.1-3.7-1.1c-1.1,0-2.2,0.2-3.2,0.6c-1,0.4-1.9,0.9-2.7,1.5l-1.1-1.8c0.9-0.7,1.9-1.4,3.2-1.7    c1.2-0.4,2.6-0.6,3.9-0.6C136.6,443.6,138.4,444.2,139.6,445.3z M137,458.6c0.9-0.6,1.6-1.5,2.2-2.7v-2.9h-5.5    c-3,0-4.5,1.1-4.5,3.2c0,1,0.4,1.8,1.1,2.4c0.8,0.6,1.9,0.9,3.2,0.9S136,459.3,137,458.6z"
   id="path40" />
		<path
   fill="#FFFFFF"
   d="M171.7,453.2h-14.6c0.1,1.8,0.9,3.3,2.1,4.4c1.3,1.1,2.9,1.6,4.8,1.6c1.1,0,2.1-0.2,3-0.6    c0.9-0.4,1.7-0.9,2.4-1.7l1.4,1.5c-0.8,0.9-1.7,1.6-2.9,2.2c-1.1,0.5-2.4,0.7-3.9,0.7c-1.8,0-3.4-0.4-4.7-1.1s-2.4-1.8-3.2-3.2    c-0.8-1.4-1.1-2.9-1.1-4.6s0.4-3.2,1.1-4.6c0.7-1.4,1.8-2.4,3.1-3.2c1.3-0.7,2.7-1.1,4.4-1.1c1.6,0,3.1,0.4,4.4,1.1    c1.3,0.7,2.3,1.8,3,3.2c0.7,1.4,1.1,2.9,1.1,4.6L171.7,453.2z M159.1,447.3c-1.1,1.1-1.8,2.5-1.9,4.2h12.4    c-0.1-1.7-0.8-3.2-1.9-4.2c-1.1-1.1-2.6-1.6-4.3-1.6C161.6,445.6,160.2,446.2,159.1,447.3z"
   id="path42" />
		<path
   fill="#FFFFFF"
   d="M203.6,445.6c1.2,1.3,1.9,3.2,1.9,5.6v10.1h-2.4v-9.9c0-1.8-0.4-3.2-1.3-4.2c-0.9-0.9-2.1-1.4-3.7-1.4    c-1.8,0-3.2,0.6-4.3,1.6c-1.1,1.1-1.6,2.7-1.6,4.7v9.2h-2.4v-9.9c0-1.8-0.4-3.2-1.3-4.2c-0.9-0.9-2.2-1.4-3.7-1.4    c-1.8,0-3.2,0.6-4.3,1.6c-1.1,1.1-1.6,2.7-1.6,4.7v9.2h-2.4v-17.5h2.3v3.2c0.6-1.1,1.5-1.9,2.6-2.4c1.1-0.6,2.4-0.9,3.8-0.9    s2.7,0.3,3.8,0.9c1.1,0.6,1.9,1.5,2.4,2.7c0.6-1.1,1.6-2.1,2.8-2.7c1.2-0.6,2.6-1,4.2-1C200.6,443.6,202.3,444.3,203.6,445.6z"
   id="path44" />
		<path
   fill="#FFFFFF"
   d="M221.1,438h9.5c2.4,0,4.7,0.5,6.5,1.5c1.9,1,3.4,2.4,4.4,4.1c1.1,1.8,1.6,3.8,1.6,6s-0.5,4.3-1.6,6    c-1.1,1.8-2.5,3.2-4.4,4.1c-1.9,1-4.1,1.5-6.5,1.5h-9.5L221.1,438L221.1,438z M230.4,459.1c2,0,3.8-0.4,5.4-1.2    c1.5-0.8,2.7-1.9,3.6-3.4c0.9-1.4,1.3-3.1,1.3-4.9c0-1.9-0.4-3.5-1.3-4.9c-0.9-1.4-2-2.6-3.6-3.4c-1.5-0.8-3.3-1.2-5.4-1.2h-6.9    v19L230.4,459.1L230.4,459.1z"
   id="path46" />
		<path
   fill="#FFFFFF"
   d="M248,439.5c-0.4-0.4-0.5-0.7-0.5-1.2c0-0.4,0.1-0.9,0.5-1.1c0.4-0.4,0.7-0.5,1.2-0.5    c0.5,0,0.9,0.1,1.2,0.5c0.4,0.3,0.5,0.7,0.5,1.1c0,0.5-0.1,0.9-0.5,1.2c-0.4,0.4-0.7,0.5-1.2,0.5C248.7,440,248.3,439.7,248,439.5    z M248,443.8h2.4v17.5H248V443.8z"
   id="path48" />
		<path
   fill="#FFFFFF"
   d="M257.6,460.8c-1.3-0.4-2.3-0.9-3-1.6l1.1-1.9c0.7,0.6,1.6,1.1,2.7,1.4s2.3,0.6,3.4,0.6    c1.6,0,2.8-0.2,3.5-0.7c0.8-0.5,1.1-1.2,1.1-2.1c0-0.6-0.2-1.1-0.6-1.5c-0.4-0.4-0.9-0.6-1.6-0.9s-1.5-0.4-2.6-0.6    c-1.4-0.3-2.6-0.5-3.4-0.8s-1.6-0.7-2.2-1.4c-0.6-0.6-0.9-1.6-0.9-2.7c0-1.4,0.6-2.7,1.8-3.6c1.2-0.9,2.9-1.4,5.1-1.4    c1.1,0,2.3,0.1,3.4,0.4c1.1,0.3,2.1,0.7,2.8,1.1l-1,1.9c-1.4-1-3.2-1.5-5.2-1.5c-1.5,0-2.7,0.3-3.4,0.8c-0.8,0.5-1.1,1.2-1.1,2.1    c0,0.6,0.2,1.2,0.6,1.6c0.4,0.4,1,0.7,1.6,0.9c0.6,0.2,1.5,0.4,2.7,0.6c1.4,0.3,2.5,0.5,3.4,0.8c0.9,0.3,1.6,0.7,2.2,1.4    c0.6,0.6,0.9,1.5,0.9,2.7c0,1.5-0.6,2.7-1.9,3.7c-1.3,0.9-3,1.4-5.3,1.4C260.2,461.4,258.9,461.2,257.6,460.8z"
   id="path50" />
		<path
   fill="#FFFFFF"
   d="M282.4,460.2c-0.4,0.4-1,0.7-1.6,0.9c-0.6,0.2-1.4,0.3-2,0.3c-1.6,0-2.9-0.4-3.8-1.4    c-0.9-0.9-1.4-2.2-1.4-3.7v-10.5h-3.2v-2h3.2V440h2.4v3.8h5.3v2h-5.3v10.4c0,1.1,0.3,1.9,0.8,2.4c0.5,0.6,1.3,0.8,2.2,0.8    c0.5,0,0.9-0.1,1.4-0.2c0.4-0.1,0.9-0.4,1.1-0.6L282.4,460.2z"
   id="path52" />
		<path
   fill="#FFFFFF"
   d="M291.4,444.5c1.1-0.6,2.4-0.9,4.1-0.9v2.3h-0.6c-1.9,0-3.3,0.6-4.3,1.7c-1.1,1.1-1.6,2.7-1.6,4.7v8.9h-2.4    v-17.5h2.3v3.4C289.5,446,290.4,445.1,291.4,444.5z"
   id="path54" />
		<path
   fill="#FFFFFF"
   d="M299.7,439.5c-0.4-0.4-0.5-0.7-0.5-1.2c0-0.4,0.1-0.9,0.5-1.1c0.4-0.4,0.7-0.5,1.2-0.5s0.9,0.1,1.2,0.5    c0.4,0.3,0.5,0.7,0.5,1.1c0,0.5-0.1,0.9-0.5,1.2c-0.4,0.3-0.7,0.5-1.2,0.5S300,439.7,299.7,439.5z M299.8,443.8h2.4v17.5h-2.4    V443.8z"
   id="path56" />
		<path
   fill="#FFFFFF"
   d="M322.1,444.8c1.4,0.7,2.4,1.8,3.2,3.2c0.8,1.4,1.1,2.9,1.1,4.6s-0.4,3.3-1.1,4.6c-0.7,1.4-1.8,2.4-3.2,3.2    c-1.4,0.8-2.8,1.1-4.4,1.1c-1.4,0-2.8-0.3-3.9-0.9c-1.1-0.6-2.1-1.5-2.8-2.7v3.4h-2.3v-24.6h2.4v10.5c0.7-1.1,1.6-2,2.8-2.6    c1.1-0.6,2.4-0.9,3.9-0.9C319.3,443.6,320.8,444,322.1,444.8z M320.8,458.5c1-0.6,1.8-1.4,2.4-2.4c0.6-1.1,0.9-2.2,0.9-3.6    c0-1.4-0.3-2.5-0.9-3.6c-0.6-1.1-1.4-1.9-2.4-2.4c-1-0.6-2.1-0.9-3.3-0.9c-1.2,0-2.4,0.3-3.4,0.9c-1,0.6-1.8,1.4-2.3,2.4    c-0.6,1.1-0.9,2.2-0.9,3.6c0,1.4,0.3,2.5,0.9,3.6c0.6,1.1,1.4,1.9,2.3,2.4c1,0.6,2.1,0.9,3.4,0.9    C318.8,459.3,319.8,459,320.8,458.5z"
   id="path58" />
		<path
   fill="#FFFFFF"
   d="M346.9,443.8v17.5h-2.3v-3.2c-0.6,1.1-1.5,1.9-2.6,2.5c-1.1,0.6-2.3,0.9-3.7,0.9c-2.3,0-4.1-0.6-5.4-1.9    s-2-3.2-2-5.6v-10.2h2.4v9.9c0,1.9,0.4,3.2,1.4,4.2c0.9,0.9,2.2,1.4,3.9,1.4c1.9,0,3.3-0.6,4.4-1.6c1.1-1.1,1.6-2.7,1.6-4.7v-9.2    H346.9z"
   id="path60" />
		<path
   fill="#FFFFFF"
   d="M353.5,439.5c-0.4-0.4-0.5-0.7-0.5-1.2c0-0.4,0.1-0.9,0.5-1.1c0.4-0.4,0.7-0.5,1.2-0.5    c0.5,0,0.9,0.1,1.2,0.5c0.4,0.3,0.5,0.7,0.5,1.1c0,0.5-0.1,0.9-0.5,1.2c-0.4,0.3-0.7,0.5-1.2,0.5    C354.3,440,353.9,439.7,353.5,439.5z M353.5,443.8h2.4v17.5h-2.4V443.8z"
   id="path62" />
		<path
   fill="#FFFFFF"
   d="M365.1,460.3c-1.4-0.7-2.4-1.8-3.2-3.2c-0.8-1.4-1.1-2.9-1.1-4.6c0-1.7,0.4-3.2,1.1-4.6    c0.8-1.4,1.9-2.4,3.2-3.2c1.4-0.7,2.9-1.1,4.7-1.1c1.5,0,2.9,0.3,4,0.9s2.2,1.4,2.8,2.6l-1.8,1.2c-0.6-0.9-1.3-1.5-2.2-1.9    c-0.9-0.4-1.9-0.6-2.9-0.6c-1.3,0-2.4,0.3-3.4,0.9s-1.8,1.4-2.4,2.4c-0.6,1.1-0.9,2.2-0.9,3.6c0,1.4,0.3,2.5,0.9,3.6    c0.6,1.1,1.4,1.8,2.4,2.4c1,0.6,2.2,0.9,3.4,0.9c1.1,0,2-0.2,2.9-0.6s1.6-1.1,2.2-1.9l1.8,1.2c-0.7,1.1-1.6,2-2.8,2.6    c-1.1,0.6-2.5,0.9-4,0.9C368,461.4,366.4,461,365.1,460.3z M365.6,467.8l0.6-1.3c0.6,0.4,1.4,0.6,2.2,0.6c0.6,0,1.1-0.1,1.5-0.4    c0.4-0.3,0.5-0.6,0.5-1.1c0-0.4-0.1-0.9-0.5-1.1s-0.9-0.4-1.6-0.4h-0.8l0.8-3h1.4l-0.5,1.9c0.9,0.1,1.6,0.4,2.1,0.9    s0.7,1.1,0.7,1.9c0,0.9-0.4,1.6-1,2.1c-0.7,0.5-1.6,0.8-2.7,0.8C367.2,468.6,366.3,468.3,365.6,467.8z"
   id="path64" />
		<path
   fill="#FFFFFF"
   d="M392.6,445.3c1.2,1.1,1.8,2.8,1.8,5.1v10.8H392v-2.7c-0.5,0.9-1.3,1.6-2.4,2.2c-1,0.5-2.2,0.8-3.7,0.8    c-1.9,0-3.5-0.4-4.7-1.4c-1.1-0.9-1.7-2.2-1.7-3.7c0-1.5,0.5-2.7,1.6-3.6c1.1-0.9,2.8-1.4,5.2-1.4h5.5v-1.1c0-1.5-0.4-2.7-1.3-3.4    c-0.9-0.8-2.1-1.1-3.7-1.1c-1.1,0-2.2,0.2-3.2,0.6c-1,0.4-1.9,0.9-2.7,1.5l-1.1-1.8c0.9-0.7,1.9-1.4,3.2-1.7    c1.2-0.4,2.6-0.6,3.9-0.6C389.6,443.6,391.3,444.2,392.6,445.3z M389.9,458.6c0.9-0.6,1.6-1.5,2.2-2.7v-2.9h-5.5    c-3,0-4.5,1.1-4.5,3.2c0,1,0.4,1.8,1.1,2.4c0.8,0.6,1.9,0.9,3.2,0.9S389,459.3,389.9,458.6z M388.2,440.5c-0.4-0.2-0.9-0.6-1.3-1    c-0.4-0.4-0.7-0.6-0.9-0.7s-0.5-0.2-0.7-0.2c-0.5,0-0.9,0.2-1.2,0.6c-0.3,0.4-0.5,0.9-0.5,1.6h-1.4c0.1-1.1,0.4-2,0.9-2.7    s1.2-1,2.2-1c0.5,0,0.9,0.1,1.4,0.4c0.4,0.2,0.9,0.6,1.4,1c0.4,0.3,0.6,0.6,0.9,0.7c0.2,0.1,0.5,0.2,0.8,0.2    c0.5,0,0.9-0.2,1.2-0.6c0.3-0.4,0.5-0.9,0.5-1.5h1.4c-0.1,1.1-0.4,1.9-0.9,2.6c-0.5,0.6-1.2,1-2.2,1    C389.1,440.8,388.7,440.7,388.2,440.5z"
   id="path66" />
		<path
   fill="#FFFFFF"
   d="M403.5,460.3c-1.4-0.8-2.4-1.8-3.2-3.2c-0.8-1.4-1.1-2.9-1.1-4.6c0-1.7,0.4-3.2,1.1-4.6    c0.8-1.4,1.9-2.4,3.2-3.2c1.3-0.7,2.9-1.1,4.5-1.1c1.6,0,3.2,0.4,4.5,1.1c1.4,0.7,2.4,1.8,3.2,3.2c0.7,1.4,1.1,2.9,1.1,4.6    c0,1.7-0.4,3.2-1.1,4.6s-1.8,2.4-3.2,3.2c-1.4,0.8-2.9,1.1-4.5,1.1C406.3,461.4,404.8,461,403.5,460.3z M411.3,458.5    c1-0.6,1.7-1.4,2.3-2.4c0.6-1.1,0.9-2.2,0.9-3.6c0-1.4-0.3-2.5-0.9-3.6c-0.6-1.1-1.3-1.9-2.3-2.4c-1-0.6-2.1-0.9-3.4-0.9    c-1.2,0-2.4,0.3-3.4,0.9c-1,0.6-1.8,1.4-2.3,2.4c-0.6,1.1-0.9,2.2-0.9,3.6c0,1.4,0.3,2.5,0.9,3.6c0.6,1.1,1.4,1.9,2.3,2.4    c1,0.6,2.1,0.9,3.4,0.9C409.3,459.3,410.3,459,411.3,458.5z"
   id="path68" />
	</g>
</g>
</svg>