<?xml version="1.0" encoding="UTF-8" standalone="no"?>
<!-- Generator: Adobe Illustrator 18.0.0, SVG Export Plug-In . SVG Version: 6.00 Build 0)  -->

<svg
   xmlns:dc="http://purl.org/dc/elements/1.1/"
   xmlns:cc="http://creativecommons.org/ns#"
   xmlns:rdf="http://www.w3.org/1999/02/22-rdf-syntax-ns#"
   xmlns:svg="http://www.w3.org/2000/svg"
   xmlns="http://www.w3.org/2000/svg"
   xmlns:sodipodi="http://sodipodi.sourceforge.net/DTD/sodipodi-0.dtd"
   xmlns:inkscape="http://www.inkscape.org/namespaces/inkscape"
   version="1.1"
   id="Layer_1"
   inkscape:version="0.92.3 (2405546, 2018-03-11)"
   sodipodi:docname="logo-footer.svg"
   x="0px"
   y="0px"
   viewBox="6 164.3 835.9 233.6"
   enable-background="new 6 164.3 835.9 233.6"
   xml:space="preserve"><metadata
   id="metadata40"><rdf:RDF><cc:Work
       rdf:about=""><dc:format>image/svg+xml</dc:format><dc:type
         rdf:resource="http://purl.org/dc/dcmitype/StillImage" /></cc:Work></rdf:RDF></metadata><defs
   id="defs38" />
<sodipodi:namedview
   inkscape:cy="103.46143"
   inkscape:cx="159.82694"
   inkscape:zoom="0.68329847"
   showgrid="false"
   guidetolerance="10"
   gridtolerance="10"
   objecttolerance="10"
   bordercolor="#666666"
   pagecolor="#ffffff"
   borderopacity="1"
   id="namedview75"
   inkscape:current-layer="Layer_1"
   inkscape:window-maximized="1"
   inkscape:window-y="-8"
   inkscape:window-x="-8"
   inkscape:window-height="837"
   inkscape:pageshadow="2"
   inkscape:window-width="1600"
   inkscape:pageopacity="0">
	</sodipodi:namedview>
<path
   id="path2"
   fill="#FFFFFF"
   d="M262.6,260.5c-3.3-0.6-5.5-0.7-6.7-0.7c-6,0-11.3,1.4-16.2,4.3c-4.8,2.8-7.7,6.4-8.9,10.6  l-8.2,31.9h-17.6l14.9-57.4h17.4l-3.1,11.8c5.2-4.7,9.9-8.2,14.3-10.3c4.3-2.1,9.5-3.3,15.6-3.3c1.7,0,4.1,0.3,7.1,0.9L262.6,260.5  L262.6,260.5z M359.1,306.7h-17.7l3-11.3c-10.9,8.6-22.8,13-35.6,13c-11.1,0-19.8-3-26.2-8.9c-6.2-6-8.4-13.2-6.2-21.7  c2.1-7.9,7.9-15,17.4-21.1c9.5-6,19.6-8.9,30.3-8.9c6.7,0,12.6,1.1,17.9,3.7c5.2,2.6,9.1,5.7,11.3,9.6l3-11.6H374L359.1,306.7  L359.1,306.7z M346.3,264.6c-4.5-3.7-10.6-5.5-18.4-5.5c-7.5,0-14.5,1.8-21.1,5.5c-6.7,3.7-10.5,8.1-11.8,13  c-1.4,5.4,0.1,10.1,4.5,13.9c4.5,3.8,10.6,5.7,18.4,5.7c7.7,0,14.7-1.8,21.3-5.7s10.3-8.4,11.8-13.5  C352.5,272.9,350.9,268.5,346.3,264.6L346.3,264.6z M466.2,265.1l-10.6,41.5h-17.9l9.8-38c0.9-3.1,0-5.7-2.4-7.7s-6-3.1-10.5-3.1  c-6,0-11.5,1.7-16.7,5.1c-5.2,3.4-8.4,7.5-9.6,12.3l-8.1,31.3h-17.6l14.9-57.4h17.4l-2.6,9.6c6.1-3.8,11.5-6.7,16-8.5  s9.5-2.7,14.6-2.7c7.7,0,13.7,1.7,18.3,5.2C465.7,256.3,467.4,260.4,466.2,265.1L466.2,265.1z M527.7,263.1  c-2.7-1.6-5.1-2.6-7.1-3.4c-2.1-0.9-4.5-1.1-7.7-1.1c-7.2,0-11.3,1.8-12.2,5.4c-0.7,2.6,3.3,5.1,11.8,7.7c8.5,2.4,14.5,5.1,17.7,8.1  c3.3,2.8,4.4,6.5,3.3,10.6c-1.1,4.8-5.2,9.1-12,12.8c-6.7,3.5-14,5.4-21.8,5.4c-11.9,0-20.7-3.8-26.4-11.3l15.2-4.5  c4.1,3.3,8.8,5,14,5c3.7,0,7.1-0.7,10.2-2.1s5-3,5.4-4.8c0.9-3.3-3.3-6.1-12.3-8.6c-8.9-2.6-15-5.1-18.1-7.8c-3-2.6-4.1-6-3.1-9.6  c1.1-4.8,5-8.8,11.1-12c6.1-3.3,13.2-4.8,21.1-4.8s16.2,2.8,24.5,8.4L527.7,263.1L527.7,263.1z M627.6,265.1L617,306.6h-17.7l9.8-38  c0.9-3.1,0-5.7-2.4-7.7s-6-3.1-10.5-3.1c-6,0-11.5,1.7-16.7,5.1c-5.2,3.4-8.4,7.5-9.6,12.3l-8.1,31.3h-17.6l14.9-57.4h17.4l-2.6,9.6  c6.1-3.8,11.5-6.7,16-8.5c4.5-1.8,9.5-2.7,14.6-2.7c7.7,0,13.7,1.7,18.3,5.2C627.2,256.3,628.7,260.4,627.6,265.1L627.6,265.1z   M729.8,280.4h-72c0,6,2.6,10.2,7.2,12.9c5,2.7,10.6,4.1,17.1,4.1c10.1,0,19.3-2.8,27.6-8.6l11.3,6.7c-12,8.6-26.1,12.9-42.5,12.9  c-12.5,0-22.3-2.8-29.2-8.8c-6.9-6-9.4-13-6.9-21.8c2.1-8.1,8.2-15.2,18.3-21.1c10.1-6,21.3-8.9,33.7-8.9c12,0,21.8,3,28.8,9.1  C730.2,262.8,732.5,270.6,729.8,280.4L729.8,280.4z M691.5,258.7c-12.2,0-22,4-29.2,11.9h51.4C710.1,262.8,702.7,258.7,691.5,258.7  L691.5,258.7z M799.4,249.2l-2.8,11.1H779l-12,46.3h-17.7l12-46.3h-14l2.8-11.2h14l4.3-16.6H786l-4.3,16.7L799.4,249.2L799.4,249.2z  " />
<path
   id="path8_1_"
   fill="#FFFFFF"
   d="M62.6,379.2c27,0,48.9-20.2,48.9-44.8c0-24.7-21.8-44.8-48.9-44.8s-48.9,20.2-48.9,44.8  C13.7,359,35.7,379.2,62.6,379.2 M62.6,385.5c-30.6,0-55.4-23-55.4-51.2c0-28.2,24.7-51.2,55.4-51.2c30.6,0,55.4,23,55.4,51.2  C118,362.5,93.3,385.5,62.6,385.5L62.6,385.5L62.6,385.5z" />
<path
   id="path8_2_"
   fill="#FFFFFF"
   stroke="#FFFFFF"
   stroke-width="3"
   stroke-miterlimit="10"
   d="M62.6,365.9  c19,0,34.4-14.2,34.4-31.6c0-17.4-15.4-31.6-34.4-31.6s-34.4,14.2-34.4,31.6C28.2,351.7,43.7,365.9,62.6,365.9 M62.6,370.4  c-21.5,0-39-16.2-39-36.1c0-19.9,17.4-36.1,39-36.1c21.5,0,39,16.2,39,36.1C101.6,354.2,84.2,370.4,62.6,370.4L62.6,370.4  L62.6,370.4z" />
<path
   id="path12"
   fill="#FFFFFF"
   d="M799.4,314.5c10.9,0,19.8,7.7,19.8,17s-8.8,17-19.8,17c-10.9,0-19.8-7.7-19.8-17  S788.3,314.5,799.4,314.5L799.4,314.5z" />
<polyline
   id="polyline14"
   fill="#FFFFFF"
   points="142.4,192.6 142.4,186.5 812.8,186.5 812.8,192.6 142.4,192.6 " />
<polyline
   id="polyline16"
   fill="#FFFFFF"
   points="150.7,172.8 150.7,166.8 841.9,166.8 841.9,172.8 150.7,172.8 " />
<polygon
   id="polygon18"
   fill="#FFFFFF"
   points="83.8,167.3 70.9,209.4 166.5,209.4 135.6,306.6 177,306.6 204.8,210.6 527.8,210.6   527.8,204.7 200.4,204.5 172.5,300.6 143.9,300.6 174.8,203.4 79.1,203.3 88.2,172.8 128.8,172.8 128.8,167.1 " />
<rect
   id="rect20"
   x="97.9"
   y="327.1"
   fill="#FFFFFF"
   width="701.3"
   height="8.5" />

</svg>